<svg width="420" height="160" viewBox="0 0 420 160" fill="none" xmlns="http://www.w3.org/2000/svg">
<path d="M0 8C0 3.58172 3.58172 0 8 0H412C416.418 0 420 3.58172 420 8V152C420 156.418 416.418 160 412 160H8C3.58172 160 0 156.418 0 152V8Z" fill="url(#paint0_linear_306_13)"/>
<path d="M19.704 45.4464H26.0592V48H16.4016V35.328H19.704V45.4464ZM31.9863 38.208C32.9975 38.208 33.8807 38.4064 34.6359 38.8032C35.4039 39.1872 35.9991 39.7568 36.4215 40.512C36.8567 41.2544 37.0743 42.1504 37.0743 43.2C37.0743 44.2496 36.8567 45.152 36.4215 45.9072C35.9991 46.6496 35.4039 47.2192 34.6359 47.616C33.8807 48 32.9975 48.192 31.9863 48.192C31.0007 48.192 30.1239 48 29.3559 47.616C28.5879 47.2192 27.9863 46.6496 27.5511 45.9072C27.1287 45.152 26.9175 44.2496 26.9175 43.2C26.9175 42.1504 27.1287 41.2544 27.5511 40.512C27.9863 39.7568 28.5879 39.1872 29.3559 38.8032C30.1239 38.4064 31.0007 38.208 31.9863 38.208ZM31.9863 40.5312C31.6151 40.5312 31.2951 40.6208 31.0263 40.8C30.7575 40.9792 30.5527 41.2672 30.4119 41.664C30.2711 42.0608 30.2007 42.5728 30.2007 43.2C30.2007 43.8272 30.2711 44.3392 30.4119 44.736C30.5527 45.12 30.7575 45.408 31.0263 45.6C31.2951 45.7792 31.6151 45.8688 31.9863 45.8688C32.3703 45.8688 32.6967 45.7792 32.9655 45.6C33.2343 45.408 33.4391 45.12 33.5799 44.736C33.7207 44.3392 33.7911 43.8272 33.7911 43.2C33.7911 42.5728 33.7207 42.0608 33.5799 41.664C33.4391 41.2672 33.2343 40.9792 32.9655 40.8C32.6967 40.6208 32.3703 40.5312 31.9863 40.5312ZM43.2881 38.208C44.2993 38.208 45.1825 38.4064 45.9377 38.8032C46.7057 39.1872 47.3009 39.7568 47.7233 40.512C48.1585 41.2544 48.3761 42.1504 48.3761 43.2C48.3761 44.2496 48.1585 45.152 47.7233 45.9072C47.3009 46.6496 46.7057 47.2192 45.9377 47.616C45.1825 48 44.2993 48.192 43.2881 48.192C42.3025 48.192 41.4257 48 40.6577 47.616C39.8897 47.2192 39.2881 46.6496 38.8529 45.9072C38.4305 45.152 38.2193 44.2496 38.2193 43.2C38.2193 42.1504 38.4305 41.2544 38.8529 40.512C39.2881 39.7568 39.8897 39.1872 40.6577 38.8032C41.4257 38.4064 42.3025 38.208 43.2881 38.208ZM43.2881 40.5312C42.9169 40.5312 42.5969 40.6208 42.3281 40.8C42.0593 40.9792 41.8545 41.2672 41.7137 41.664C41.5729 42.0608 41.5025 42.5728 41.5025 43.2C41.5025 43.8272 41.5729 44.3392 41.7137 44.736C41.8545 45.12 42.0593 45.408 42.3281 45.6C42.5969 45.7792 42.9169 45.8688 43.2881 45.8688C43.6721 45.8688 43.9985 45.7792 44.2673 45.6C44.5361 45.408 44.7409 45.12 44.8817 44.736C45.0225 44.3392 45.0929 43.8272 45.0929 43.2C45.0929 42.5728 45.0225 42.0608 44.8817 41.664C44.7409 41.2672 44.5361 40.9792 44.2673 40.8C43.9985 40.6208 43.6721 40.5312 43.2881 40.5312ZM60.561 38.4L55.953 43.3152L55.3386 43.488L52.593 46.56L52.5738 43.2192L56.9322 38.4H60.561ZM53.2842 34.3296V48H50.0202V34.3296H53.2842ZM56.4522 41.28L60.7722 48H57.1626L54.321 43.2L56.4522 41.28ZM63.404 37.2864C62.7384 37.2864 62.252 37.1648 61.9448 36.9216C61.6504 36.6656 61.5032 36.2688 61.5032 35.7312C61.5032 35.1808 61.6504 34.784 61.9448 34.5408C62.252 34.2848 62.7384 34.1568 63.404 34.1568C64.0568 34.1568 64.5368 34.2848 64.844 34.5408C65.1512 34.784 65.3048 35.1808 65.3048 35.7312C65.3048 36.2688 65.1512 36.6656 64.844 36.9216C64.5368 37.1648 64.0568 37.2864 63.404 37.2864ZM65.036 38.4V48H61.772V38.4H65.036ZM67.1675 48V38.4H70.0859L70.2587 41.7024L69.8939 41.3376C70.0219 40.6464 70.2459 40.0704 70.5659 39.6096C70.8987 39.1488 71.3083 38.8032 71.7947 38.5728C72.2939 38.3296 72.8507 38.208 73.4651 38.208C74.1307 38.208 74.7067 38.336 75.1931 38.592C75.6923 38.848 76.0827 39.2256 76.3643 39.7248C76.6459 40.224 76.7867 40.8512 76.7867 41.6064V48H73.5227V42.4704C73.5227 41.8048 73.3947 41.344 73.1387 41.088C72.8827 40.832 72.5563 40.704 72.1595 40.704C71.8523 40.704 71.5643 40.7808 71.2955 40.9344C71.0267 41.0752 70.8155 41.3056 70.6619 41.6256C70.5083 41.9456 70.4315 42.3744 70.4315 42.912V48H67.1675ZM88.1745 35.8272L88.4433 38.016C88.3665 37.9904 88.2897 37.9776 88.2129 37.9776C88.1361 37.9648 88.0593 37.9584 87.9825 37.9584C87.4193 37.9584 86.9969 38.0992 86.7153 38.3808C86.4465 38.6496 86.3121 38.9888 86.3121 39.3984L85.1601 38.976C85.1601 38.4512 85.2561 37.9456 85.4481 37.4592C85.6401 36.9728 85.9345 36.576 86.3313 36.2688C86.7409 35.9616 87.2529 35.808 87.8673 35.808C87.9057 35.808 87.9505 35.808 88.0017 35.808C88.0657 35.808 88.1233 35.8144 88.1745 35.8272ZM84.8721 45.8688C85.9857 45.8688 86.8369 46.1056 87.4257 46.5792C88.0273 47.04 88.3281 47.7056 88.3281 48.576C88.3281 49.3696 88.1105 50.0288 87.6753 50.5536C87.2401 51.0784 86.6257 51.4688 85.8321 51.7248C85.0513 51.9936 84.1233 52.128 83.0481 52.128C81.3073 52.128 80.0529 51.9104 79.2849 51.4752C78.5169 51.04 78.1329 50.4512 78.1329 49.7088C78.1329 49.1712 78.3505 48.736 78.7857 48.4032C79.2209 48.0704 79.9441 47.8912 80.9553 47.8656L80.8785 48.1728C80.0977 48.0704 79.5153 47.84 79.1313 47.4816C78.7473 47.1232 78.5553 46.6368 78.5553 46.0224C78.5553 45.408 78.7985 44.9088 79.2849 44.5248C79.7713 44.1408 80.4177 43.9296 81.2241 43.8912L82.4145 44.448H82.1073C81.6081 44.4736 81.2561 44.5568 81.0513 44.6976C80.8465 44.8384 80.7441 45.0112 80.7441 45.216C80.7441 45.4336 80.8337 45.6 81.0129 45.7152C81.1921 45.8176 81.4609 45.8688 81.8193 45.8688H84.8721ZM83.0673 50.016C83.6817 50.016 84.1873 49.9712 84.5841 49.8816C84.9937 49.8048 85.3009 49.6896 85.5057 49.536C85.7105 49.3952 85.8129 49.2288 85.8129 49.0368C85.8129 48.8448 85.7425 48.6912 85.6017 48.576C85.4609 48.4736 85.2049 48.4224 84.8337 48.4224H81.3969C81.1537 48.4224 80.9553 48.4864 80.8017 48.6144C80.6609 48.7424 80.5905 48.9024 80.5905 49.0944C80.5905 49.3888 80.8081 49.6128 81.2433 49.7664C81.6785 49.9328 82.2865 50.016 83.0673 50.016ZM83.1825 38.208C84.1553 38.208 84.9873 38.336 85.6785 38.592C86.3697 38.848 86.8945 39.2192 87.2529 39.7056C87.6241 40.1792 87.8097 40.768 87.8097 41.472C87.8097 42.1632 87.6241 42.752 87.2529 43.2384C86.8945 43.7248 86.3697 44.096 85.6785 44.352C84.9873 44.5952 84.1553 44.7168 83.1825 44.7168C81.6593 44.7168 80.5009 44.4352 79.7073 43.872C78.9265 43.3088 78.5361 42.5088 78.5361 41.472C78.5361 40.768 78.7153 40.1792 79.0737 39.7056C79.4449 39.2192 79.9761 38.848 80.6673 38.592C81.3585 38.336 82.1969 38.208 83.1825 38.208ZM83.1825 40.0704C82.7601 40.0704 82.4145 40.192 82.1457 40.4352C81.8897 40.6784 81.7617 41.024 81.7617 41.472C81.7617 41.9072 81.8897 42.2464 82.1457 42.4896C82.4145 42.7328 82.7601 42.8544 83.1825 42.8544C83.5921 42.8544 83.9313 42.7328 84.2001 42.4896C84.4689 42.2464 84.6033 41.9072 84.6033 41.472C84.6033 41.024 84.4689 40.6784 84.2001 40.4352C83.9313 40.192 83.5921 40.0704 83.1825 40.0704ZM99.0776 34.0608C99.6024 34.0608 100.063 34.1184 100.46 34.2336C100.857 34.336 101.151 34.4576 101.343 34.5984L101.017 36.6336C100.876 36.544 100.716 36.4736 100.537 36.4224C100.358 36.3712 100.134 36.3456 99.8648 36.3456C99.4168 36.3456 99.0456 36.448 98.7512 36.6528C98.4696 36.8576 98.3288 37.216 98.3288 37.728V38.976L98.5208 39.5136V48H95.2568V37.5168C95.2568 36.9024 95.3528 36.3776 95.5448 35.9424C95.7496 35.5072 96.0312 35.1488 96.3896 34.8672C96.748 34.5856 97.1576 34.3808 97.6184 34.2528C98.0792 34.1248 98.5656 34.0608 99.0776 34.0608ZM101.247 38.4V40.7232H93.7208V38.4H101.247ZM106.857 38.208C107.868 38.208 108.751 38.4064 109.506 38.8032C110.274 39.1872 110.869 39.7568 111.292 40.512C111.727 41.2544 111.945 42.1504 111.945 43.2C111.945 44.2496 111.727 45.152 111.292 45.9072C110.869 46.6496 110.274 47.2192 109.506 47.616C108.751 48 107.868 48.192 106.857 48.192C105.871 48.192 104.994 48 104.226 47.616C103.458 47.2192 102.857 46.6496 102.421 45.9072C101.999 45.152 101.788 44.2496 101.788 43.2C101.788 42.1504 101.999 41.2544 102.421 40.512C102.857 39.7568 103.458 39.1872 104.226 38.8032C104.994 38.4064 105.871 38.208 106.857 38.208ZM106.857 40.5312C106.485 40.5312 106.165 40.6208 105.897 40.8C105.628 40.9792 105.423 41.2672 105.282 41.664C105.141 42.0608 105.071 42.5728 105.071 43.2C105.071 43.8272 105.141 44.3392 105.282 44.736C105.423 45.12 105.628 45.408 105.897 45.6C106.165 45.7792 106.485 45.8688 106.857 45.8688C107.241 45.8688 107.567 45.7792 107.836 45.6C108.105 45.408 108.309 45.12 108.45 44.736C108.591 44.3392 108.661 43.8272 108.661 43.2C108.661 42.5728 108.591 42.0608 108.45 41.664C108.309 41.2672 108.105 40.9792 107.836 40.8C107.567 40.6208 107.241 40.5312 106.857 40.5312ZM113.589 48V38.4H116.469L116.603 40.4736C116.846 39.7568 117.205 39.2 117.678 38.8032C118.165 38.4064 118.779 38.208 119.522 38.208C119.765 38.208 119.97 38.2272 120.136 38.2656C120.315 38.304 120.456 38.3552 120.558 38.4192L120.232 41.1072C120.104 41.056 119.938 41.0176 119.733 40.992C119.541 40.9536 119.304 40.9344 119.022 40.9344C118.638 40.9344 118.28 41.0176 117.947 41.184C117.614 41.3504 117.346 41.6 117.141 41.9328C116.949 42.2528 116.853 42.6624 116.853 43.1616V48H113.589ZM129.874 34.3296V44.736C129.874 45.1584 129.944 45.4592 130.085 45.6384C130.226 45.8176 130.463 45.9072 130.796 45.9072C130.988 45.9072 131.148 45.8944 131.276 45.8688C131.404 45.8432 131.557 45.8048 131.736 45.7536L131.525 47.712C131.295 47.8528 130.994 47.968 130.623 48.0576C130.252 48.1472 129.887 48.192 129.528 48.192C128.504 48.192 127.762 47.9552 127.301 47.4816C126.84 47.008 126.61 46.2336 126.61 45.1584V34.3296H129.874ZM138.245 41.9136C138.245 41.4656 138.117 41.1136 137.861 40.8576C137.617 40.5888 137.285 40.4544 136.862 40.4544C136.44 40.4544 136.075 40.5632 135.768 40.7808C135.473 40.9856 135.269 41.3568 135.153 41.8944L132.389 41.2416C132.568 40.32 133.041 39.584 133.809 39.0336C134.577 38.4832 135.659 38.208 137.054 38.208C137.989 38.208 138.782 38.3488 139.435 38.6304C140.101 38.8992 140.606 39.3088 140.952 39.8592C141.31 40.3968 141.489 41.0624 141.489 41.856V45.3696C141.489 45.8688 141.713 46.1184 142.161 46.1184C142.392 46.1184 142.577 46.0928 142.718 46.0416L142.526 47.904C142.142 48.0832 141.675 48.1728 141.125 48.1728C140.625 48.1728 140.184 48.096 139.8 47.9424C139.416 47.776 139.115 47.5328 138.897 47.2128C138.68 46.88 138.571 46.464 138.571 45.9648V45.8496L138.936 45.7152C138.936 46.2656 138.769 46.7264 138.437 47.0976C138.117 47.4688 137.694 47.744 137.169 47.9232C136.657 48.1024 136.12 48.192 135.557 48.192C134.904 48.192 134.334 48.0896 133.848 47.8848C133.361 47.68 132.984 47.3856 132.715 47.0016C132.459 46.6048 132.331 46.1184 132.331 45.5424C132.331 44.8512 132.536 44.2816 132.945 43.8336C133.368 43.3728 134.027 43.0528 134.923 42.8736L138.552 42.1248L138.533 43.8528L136.689 44.2368C136.305 44.3136 136.017 44.4288 135.825 44.5824C135.646 44.7232 135.557 44.9408 135.557 45.2352C135.557 45.5168 135.659 45.728 135.864 45.8688C136.069 46.0096 136.312 46.08 136.593 46.08C136.811 46.08 137.016 46.048 137.208 45.984C137.413 45.92 137.592 45.824 137.745 45.696C137.899 45.5552 138.021 45.3824 138.11 45.1776C138.2 44.9728 138.245 44.7296 138.245 44.448V41.9136ZM147.452 35.3472V44.5824C147.452 45.0432 147.561 45.376 147.779 45.5808C148.009 45.7728 148.323 45.8688 148.719 45.8688C149.027 45.8688 149.289 45.8368 149.507 45.7728C149.737 45.696 149.942 45.5872 150.121 45.4464L150.467 47.4624C150.147 47.6928 149.743 47.872 149.257 48C148.771 48.128 148.271 48.192 147.759 48.192C147.03 48.192 146.396 48.0896 145.859 47.8848C145.334 47.68 144.924 47.3536 144.63 46.9056C144.348 46.4576 144.201 45.8624 144.188 45.12V36.2496L147.452 35.3472ZM150.313 38.4V40.7232H142.537V38.4H150.313ZM156.314 48.192C155.251 48.192 154.33 47.9936 153.549 47.5968C152.781 47.2 152.186 46.6304 151.763 45.888C151.341 45.1456 151.13 44.2496 151.13 43.2C151.13 42.1504 151.341 41.2544 151.763 40.512C152.186 39.7696 152.774 39.2 153.53 38.8032C154.298 38.4064 155.174 38.208 156.16 38.208C157.171 38.208 158.029 38.4064 158.733 38.8032C159.45 39.1872 159.994 39.7248 160.365 40.416C160.736 41.0944 160.922 41.8752 160.922 42.7584C160.922 42.9888 160.915 43.2192 160.902 43.4496C160.89 43.68 160.87 43.872 160.845 44.0256H153.242V42.2784H159.405L157.85 42.8736C157.85 42.1056 157.709 41.5168 157.427 41.1072C157.158 40.6976 156.736 40.4928 156.16 40.4928C155.75 40.4928 155.398 40.5888 155.104 40.7808C154.822 40.9728 154.605 41.2736 154.451 41.6832C154.31 42.0928 154.24 42.6176 154.24 43.2576C154.24 43.8848 154.323 44.3968 154.49 44.7936C154.656 45.1776 154.893 45.4592 155.2 45.6384C155.507 45.8048 155.878 45.888 156.314 45.888C156.8 45.888 157.184 45.792 157.466 45.6C157.76 45.408 157.978 45.1392 158.118 44.7936L160.73 45.6576C160.55 46.208 160.237 46.6752 159.789 47.0592C159.354 47.4304 158.829 47.712 158.214 47.904C157.613 48.096 156.979 48.192 156.314 48.192ZM16.1712 71V61.4H19.0896L19.2624 64.7024L18.8976 64.3376C19.0256 63.6464 19.2496 63.0704 19.5696 62.6096C19.9024 62.1488 20.312 61.8032 20.7984 61.5728C21.2976 61.3296 21.8544 61.208 22.4688 61.208C23.1344 61.208 23.7104 61.336 24.1968 61.592C24.696 61.848 25.0864 62.2256 25.368 62.7248C25.6496 63.224 25.7904 63.8512 25.7904 64.6064V71H22.5264V65.4704C22.5264 64.8048 22.3984 64.344 22.1424 64.088C21.8864 63.832 21.56 63.704 21.1632 63.704C20.856 63.704 20.568 63.7808 20.2992 63.9344C20.0304 64.0752 19.8192 64.3056 19.6656 64.6256C19.512 64.9456 19.4352 65.3744 19.4352 65.912V71H16.1712ZM29.5174 60.2864C28.8518 60.2864 28.3654 60.1648 28.0582 59.9216C27.7638 59.6656 27.6166 59.2688 27.6166 58.7312C27.6166 58.1808 27.7638 57.784 28.0582 57.5408C28.3654 57.2848 28.8518 57.1568 29.5174 57.1568C30.1702 57.1568 30.6503 57.2848 30.9575 57.5408C31.2646 57.784 31.4182 58.1808 31.4182 58.7312C31.4182 59.2688 31.2646 59.6656 30.9575 59.9216C30.6503 60.1648 30.1702 60.2864 29.5174 60.2864ZM31.1494 61.4V71H27.8854V61.4H31.1494ZM42.5738 58.8272L42.8426 61.016C42.7658 60.9904 42.689 60.9776 42.6122 60.9776C42.5354 60.9648 42.4586 60.9584 42.3818 60.9584C41.8186 60.9584 41.3962 61.0992 41.1146 61.3808C40.8458 61.6496 40.7114 61.9888 40.7114 62.3984L39.5594 61.976C39.5594 61.4512 39.6554 60.9456 39.8474 60.4592C40.0394 59.9728 40.3338 59.576 40.7306 59.2688C41.1402 58.9616 41.6522 58.808 42.2666 58.808C42.305 58.808 42.3498 58.808 42.401 58.808C42.465 58.808 42.5226 58.8144 42.5738 58.8272ZM39.2714 68.8688C40.385 68.8688 41.2362 69.1056 41.825 69.5792C42.4266 70.04 42.7274 70.7056 42.7274 71.576C42.7274 72.3696 42.5098 73.0288 42.0746 73.5536C41.6394 74.0784 41.025 74.4688 40.2314 74.7248C39.4506 74.9936 38.5226 75.128 37.4474 75.128C35.7066 75.128 34.4522 74.9104 33.6842 74.4752C32.9162 74.04 32.5322 73.4512 32.5322 72.7088C32.5322 72.1712 32.7498 71.736 33.185 71.4032C33.6202 71.0704 34.3434 70.8912 35.3546 70.8656L35.2778 71.1728C34.497 71.0704 33.9146 70.84 33.5306 70.4816C33.1466 70.1232 32.9546 69.6368 32.9546 69.0224C32.9546 68.408 33.1978 67.9088 33.6842 67.5248C34.1706 67.1408 34.817 66.9296 35.6234 66.8912L36.8138 67.448H36.5066C36.0074 67.4736 35.6554 67.5568 35.4506 67.6976C35.2458 67.8384 35.1434 68.0112 35.1434 68.216C35.1434 68.4336 35.233 68.6 35.4122 68.7152C35.5914 68.8176 35.8602 68.8688 36.2186 68.8688H39.2714ZM37.4666 73.016C38.081 73.016 38.5866 72.9712 38.9834 72.8816C39.393 72.8048 39.7002 72.6896 39.905 72.536C40.1098 72.3952 40.2122 72.2288 40.2122 72.0368C40.2122 71.8448 40.1418 71.6912 40.001 71.576C39.8602 71.4736 39.6042 71.4224 39.233 71.4224H35.7962C35.553 71.4224 35.3546 71.4864 35.201 71.6144C35.0602 71.7424 34.9898 71.9024 34.9898 72.0944C34.9898 72.3888 35.2074 72.6128 35.6426 72.7664C36.0778 72.9328 36.6858 73.016 37.4666 73.016ZM37.5818 61.208C38.5546 61.208 39.3866 61.336 40.0778 61.592C40.769 61.848 41.2938 62.2192 41.6522 62.7056C42.0234 63.1792 42.209 63.768 42.209 64.472C42.209 65.1632 42.0234 65.752 41.6522 66.2384C41.2938 66.7248 40.769 67.096 40.0778 67.352C39.3866 67.5952 38.5546 67.7168 37.5818 67.7168C36.0586 67.7168 34.9002 67.4352 34.1066 66.872C33.3258 66.3088 32.9354 65.5088 32.9354 64.472C32.9354 63.768 33.1146 63.1792 33.473 62.7056C33.8442 62.2192 34.3754 61.848 35.0666 61.592C35.7578 61.336 36.5962 61.208 37.5818 61.208ZM37.5818 63.0704C37.1594 63.0704 36.8138 63.192 36.545 63.4352C36.289 63.6784 36.161 64.024 36.161 64.472C36.161 64.9072 36.289 65.2464 36.545 65.4896C36.8138 65.7328 37.1594 65.8544 37.5818 65.8544C37.9914 65.8544 38.3306 65.7328 38.5994 65.4896C38.8682 65.2464 39.0026 64.9072 39.0026 64.472C39.0026 64.024 38.8682 63.6784 38.5994 63.4352C38.3306 63.192 37.9914 63.0704 37.5818 63.0704ZM43.8327 71V57.3296H47.0967V63.1472C47.3783 62.5072 47.7815 62.0272 48.3063 61.7072C48.8311 61.3744 49.4391 61.208 50.1303 61.208C50.7959 61.208 51.3719 61.336 51.8583 61.592C52.3575 61.848 52.7479 62.2256 53.0295 62.7248C53.3111 63.224 53.4519 63.8512 53.4519 64.6064V71H50.1879V65.5088C50.1879 64.8176 50.0599 64.344 49.8039 64.088C49.5607 63.8192 49.2343 63.6848 48.8247 63.6848C48.5175 63.6848 48.2295 63.7616 47.9607 63.9152C47.6919 64.0688 47.4807 64.312 47.3271 64.6448C47.1735 64.9776 47.0967 65.4128 47.0967 65.9504V71H43.8327ZM59.5035 58.3472V67.5824C59.5035 68.0432 59.6123 68.376 59.8299 68.5808C60.0603 68.7728 60.3739 68.8688 60.7707 68.8688C61.0779 68.8688 61.3403 68.8368 61.5579 68.7728C61.7883 68.696 61.9931 68.5872 62.1723 68.4464L62.5179 70.4624C62.1979 70.6928 61.7947 70.872 61.3083 71C60.8219 71.128 60.3227 71.192 59.8107 71.192C59.0811 71.192 58.4475 71.0896 57.9099 70.8848C57.3851 70.68 56.9755 70.3536 56.6811 69.9056C56.3995 69.4576 56.2523 68.8624 56.2395 68.12V59.2496L59.5035 58.3472ZM62.3643 61.4V63.7232H54.5883V61.4H62.3643ZM73.0137 71.192C72.0537 71.192 71.1577 71.0384 70.3257 70.7312C69.5065 70.4112 68.8281 69.9568 68.2905 69.368L69.8265 67.5632C70.1465 67.9728 70.5689 68.3184 71.0937 68.6C71.6313 68.8688 72.2265 69.0032 72.8793 69.0032C73.2761 69.0032 73.6025 68.9456 73.8585 68.8304C74.1145 68.7152 74.2425 68.536 74.2425 68.2928C74.2425 68.1136 74.1785 67.9728 74.0505 67.8704C73.9225 67.7552 73.6665 67.6592 73.2825 67.5824L71.9385 67.3136C70.7353 67.0704 69.8777 66.712 69.3657 66.2384C68.8665 65.752 68.6169 65.1184 68.6169 64.3376C68.6169 63.8128 68.7769 63.3136 69.0969 62.84C69.4169 62.3536 69.9097 61.9632 70.5753 61.6688C71.2409 61.3616 72.0921 61.208 73.1289 61.208C74.1017 61.208 74.9593 61.3488 75.7017 61.6304C76.4441 61.912 77.0329 62.3216 77.4681 62.8592L75.9129 64.6256C75.6057 64.2416 75.2089 63.9408 74.7225 63.7232C74.2361 63.5056 73.7497 63.3968 73.2633 63.3968C72.9561 63.3968 72.6937 63.4288 72.4761 63.4928C72.2713 63.544 72.1177 63.6208 72.0153 63.7232C71.9129 63.8256 71.8617 63.9536 71.8617 64.1072C71.8617 64.2736 71.9385 64.4208 72.0921 64.5488C72.2585 64.664 72.5593 64.7664 72.9945 64.856L74.7417 65.2016C75.7273 65.3808 76.4377 65.7072 76.8729 66.1808C77.3081 66.6544 77.5257 67.224 77.5257 67.8896C77.5257 68.5168 77.3593 69.08 77.0265 69.5792C76.6937 70.0784 76.1945 70.4752 75.5289 70.7696C74.8633 71.0512 74.0249 71.192 73.0137 71.192ZM79.0272 71V61.4H81.9456L82.1184 64.7024L81.7536 64.3376C81.8816 63.6464 82.1056 63.0704 82.4256 62.6096C82.7584 62.1488 83.168 61.8032 83.6544 61.5728C84.1536 61.3296 84.7104 61.208 85.3248 61.208C85.9904 61.208 86.5664 61.336 87.0528 61.592C87.552 61.848 87.9424 62.2256 88.224 62.7248C88.5056 63.224 88.6464 63.8512 88.6464 64.6064V71H85.3824V65.4704C85.3824 64.8048 85.2544 64.344 84.9984 64.088C84.7424 63.832 84.416 63.704 84.0192 63.704C83.712 63.704 83.424 63.7808 83.1552 63.9344C82.8864 64.0752 82.6752 64.3056 82.5216 64.6256C82.368 64.9456 82.2912 65.3744 82.2912 65.912V71H79.0272ZM96.0983 64.9136C96.0983 64.4656 95.9703 64.1136 95.7143 63.8576C95.4711 63.5888 95.1383 63.4544 94.7159 63.4544C94.2935 63.4544 93.9287 63.5632 93.6215 63.7808C93.3271 63.9856 93.1223 64.3568 93.0071 64.8944L90.2423 64.2416C90.4215 63.32 90.8951 62.584 91.6631 62.0336C92.4311 61.4832 93.5127 61.208 94.9079 61.208C95.8423 61.208 96.6359 61.3488 97.2887 61.6304C97.9543 61.8992 98.4599 62.3088 98.8055 62.8592C99.1639 63.3968 99.3431 64.0624 99.3431 64.856V68.3696C99.3431 68.8688 99.5671 69.1184 100.015 69.1184C100.245 69.1184 100.431 69.0928 100.572 69.0416L100.38 70.904C99.9959 71.0832 99.5287 71.1728 98.9783 71.1728C98.4791 71.1728 98.0375 71.096 97.6535 70.9424C97.2695 70.776 96.9687 70.5328 96.7511 70.2128C96.5335 69.88 96.4247 69.464 96.4247 68.9648V68.8496L96.7895 68.7152C96.7895 69.2656 96.6231 69.7264 96.2903 70.0976C95.9703 70.4688 95.5479 70.744 95.0231 70.9232C94.5111 71.1024 93.9735 71.192 93.4103 71.192C92.7575 71.192 92.1879 71.0896 91.7015 70.8848C91.2151 70.68 90.8375 70.3856 90.5687 70.0016C90.3127 69.6048 90.1847 69.1184 90.1847 68.5424C90.1847 67.8512 90.3895 67.2816 90.7991 66.8336C91.2215 66.3728 91.8807 66.0528 92.7767 65.8736L96.4055 65.1248L96.3863 66.8528L94.5431 67.2368C94.1591 67.3136 93.8711 67.4288 93.6791 67.5824C93.4999 67.7232 93.4103 67.9408 93.4103 68.2352C93.4103 68.5168 93.5127 68.728 93.7175 68.8688C93.9223 69.0096 94.1655 69.08 94.4471 69.08C94.6647 69.08 94.8695 69.048 95.0615 68.984C95.2663 68.92 95.4455 68.824 95.5991 68.696C95.7527 68.5552 95.8743 68.3824 95.9639 68.1776C96.0535 67.9728 96.0983 67.7296 96.0983 67.448V64.9136ZM106.144 61.208C107.116 61.208 107.923 61.3488 108.563 61.6304C109.216 61.8992 109.721 62.264 110.08 62.7248C110.451 63.1728 110.681 63.6592 110.771 64.184L107.756 65.1824C107.667 64.632 107.5 64.2224 107.257 63.9536C107.027 63.672 106.688 63.5312 106.24 63.5312C105.83 63.5312 105.484 63.6272 105.203 63.8192C104.934 63.9984 104.729 64.2928 104.588 64.7024C104.448 65.0992 104.377 65.6112 104.377 66.2384C104.377 66.8656 104.454 67.3776 104.608 67.7744C104.761 68.1584 104.979 68.44 105.26 68.6192C105.542 68.7856 105.875 68.8688 106.259 68.8688C106.579 68.8688 106.841 68.8112 107.046 68.696C107.264 68.568 107.443 68.3888 107.584 68.1584C107.724 67.928 107.814 67.6464 107.852 67.3136L110.79 68.2544C110.7 68.8176 110.457 69.3232 110.06 69.7712C109.676 70.2064 109.164 70.552 108.524 70.808C107.884 71.064 107.136 71.192 106.278 71.192C105.228 71.192 104.313 71 103.532 70.616C102.752 70.2192 102.15 69.6496 101.728 68.9072C101.305 68.152 101.094 67.2496 101.094 66.2C101.094 65.1504 101.305 64.2544 101.728 63.512C102.15 62.7568 102.739 62.1872 103.494 61.8032C104.262 61.4064 105.145 61.208 106.144 61.208ZM122.836 61.4L118.228 66.3152L117.613 66.488L114.868 69.56L114.849 66.2192L119.207 61.4H122.836ZM115.559 57.3296V71H112.295V57.3296H115.559ZM118.727 64.28L123.047 71H119.437L116.596 66.2L118.727 64.28ZM128.004 71.192C127.044 71.192 126.148 71.0384 125.316 70.7312C124.497 70.4112 123.818 69.9568 123.281 69.368L124.817 67.5632C125.137 67.9728 125.559 68.3184 126.084 68.6C126.621 68.8688 127.217 69.0032 127.869 69.0032C128.266 69.0032 128.593 68.9456 128.849 68.8304C129.105 68.7152 129.233 68.536 129.233 68.2928C129.233 68.1136 129.169 67.9728 129.041 67.8704C128.913 67.7552 128.657 67.6592 128.273 67.5824L126.929 67.3136C125.725 67.0704 124.868 66.712 124.356 66.2384C123.857 65.752 123.607 65.1184 123.607 64.3376C123.607 63.8128 123.767 63.3136 124.087 62.84C124.407 62.3536 124.9 61.9632 125.565 61.6688C126.231 61.3616 127.082 61.208 128.119 61.208C129.092 61.208 129.949 61.3488 130.692 61.6304C131.434 61.912 132.023 62.3216 132.458 62.8592L130.903 64.6256C130.596 64.2416 130.199 63.9408 129.713 63.7232C129.226 63.5056 128.74 63.3968 128.253 63.3968C127.946 63.3968 127.684 63.4288 127.466 63.4928C127.261 63.544 127.108 63.6208 127.005 63.7232C126.903 63.8256 126.852 63.9536 126.852 64.1072C126.852 64.2736 126.929 64.4208 127.082 64.5488C127.249 64.664 127.549 64.7664 127.985 64.856L129.732 65.2016C130.717 65.3808 131.428 65.7072 131.863 66.1808C132.298 66.6544 132.516 67.224 132.516 67.8896C132.516 68.5168 132.349 69.08 132.017 69.5792C131.684 70.0784 131.185 70.4752 130.519 70.7696C129.853 71.0512 129.015 71.192 128.004 71.192ZM138.16 58.136C139.107 58.136 139.952 58.2704 140.694 58.5392C141.436 58.7952 142.019 59.192 142.441 59.7296C142.876 60.2544 143.094 60.9136 143.094 61.7072C143.094 62.5008 142.928 63.1472 142.595 63.6464C142.275 64.1328 141.833 64.504 141.27 64.76C140.72 65.0032 140.112 65.1632 139.446 65.24L139.254 66.8912H136.374L136.393 63.9728C137.2 63.896 137.833 63.7808 138.294 63.6272C138.768 63.4608 139.1 63.256 139.292 63.0128C139.484 62.7696 139.58 62.4816 139.58 62.1488C139.58 61.8544 139.516 61.6048 139.388 61.4C139.273 61.1952 139.094 61.0416 138.851 60.9392C138.62 60.8368 138.313 60.7856 137.929 60.7856C137.379 60.7856 136.944 60.952 136.624 61.2848C136.304 61.6048 136.099 62.0848 136.009 62.7248L132.86 61.6304C133.027 60.9648 133.315 60.3696 133.724 59.8448C134.147 59.3072 134.716 58.8912 135.433 58.5968C136.163 58.2896 137.072 58.136 138.16 58.136ZM137.852 67.9472C138.428 67.9472 138.876 68.088 139.196 68.3696C139.529 68.6512 139.696 69.048 139.696 69.56C139.696 70.0592 139.529 70.4496 139.196 70.7312C138.876 71.0128 138.428 71.1536 137.852 71.1536C137.289 71.1536 136.841 71.0128 136.508 70.7312C136.188 70.4496 136.028 70.0592 136.028 69.56C136.028 69.048 136.188 68.6512 136.508 68.3696C136.841 68.088 137.289 67.9472 137.852 67.9472Z" fill="black"/>
<path d="M347.911 30C375.525 30 397.911 52.3858 397.911 80C397.911 107.614 375.525 130 347.911 130C321.3 130 299.545 109.211 298 82.9873C304.467 89.1884 313.244 93 322.911 93C342.793 93 358.911 76.8823 358.911 57C358.911 46.2545 354.202 36.6099 346.736 30.0137C347.127 30.0047 347.518 30 347.911 30Z" fill="#343434"/>
<path d="M15 113C15 104.163 22.1634 97 31 97H182C190.837 97 198 104.163 198 113V126C198 134.837 190.837 142 182 142H31C22.1634 142 15 134.837 15 126V113Z" fill="#343434"/>
<path d="M68.5366 113.328V126H65.6182V120.182L65.7142 116.285H65.6758L62.5462 126H59.8774L56.7478 116.285H56.7094L56.8054 120.182V126H53.8678V113.328H58.5718L60.5686 119.779L61.279 122.467H61.3174L62.047 119.798L64.0246 113.328H68.5366ZM76.2397 119.914C76.2397 119.466 76.1117 119.114 75.8557 118.858C75.6125 118.589 75.2797 118.454 74.8573 118.454C74.4349 118.454 74.0701 118.563 73.7629 118.781C73.4685 118.986 73.2637 119.357 73.1485 119.894L70.3837 119.242C70.5629 118.32 71.0365 117.584 71.8045 117.034C72.5725 116.483 73.6541 116.208 75.0493 116.208C75.9837 116.208 76.7773 116.349 77.4301 116.63C78.0957 116.899 78.6013 117.309 78.9469 117.859C79.3053 118.397 79.4845 119.062 79.4845 119.856V123.37C79.4845 123.869 79.7085 124.118 80.1565 124.118C80.3869 124.118 80.5725 124.093 80.7133 124.042L80.5213 125.904C80.1373 126.083 79.6701 126.173 79.1197 126.173C78.6205 126.173 78.1789 126.096 77.7949 125.942C77.4109 125.776 77.1101 125.533 76.8925 125.213C76.6749 124.88 76.5661 124.464 76.5661 123.965V123.85L76.9309 123.715C76.9309 124.266 76.7645 124.726 76.4317 125.098C76.1117 125.469 75.6893 125.744 75.1645 125.923C74.6525 126.102 74.1149 126.192 73.5517 126.192C72.8989 126.192 72.3293 126.09 71.8429 125.885C71.3565 125.68 70.9789 125.386 70.7101 125.002C70.4541 124.605 70.3261 124.118 70.3261 123.542C70.3261 122.851 70.5309 122.282 70.9405 121.834C71.3629 121.373 72.0221 121.053 72.9181 120.874L76.5469 120.125L76.5277 121.853L74.6845 122.237C74.3005 122.314 74.0125 122.429 73.8205 122.582C73.6413 122.723 73.5517 122.941 73.5517 123.235C73.5517 123.517 73.6541 123.728 73.8589 123.869C74.0637 124.01 74.3069 124.08 74.5885 124.08C74.8061 124.08 75.0109 124.048 75.2029 123.984C75.4077 123.92 75.5869 123.824 75.7405 123.696C75.8941 123.555 76.0157 123.382 76.1053 123.178C76.1949 122.973 76.2397 122.73 76.2397 122.448V119.914ZM92.3505 116.4L87.7425 121.315L87.1281 121.488L84.3825 124.56L84.3633 121.219L88.7217 116.4H92.3505ZM85.0737 112.33V126H81.8097V112.33H85.0737ZM88.2417 119.28L92.5617 126H88.9521L86.1105 121.2L88.2417 119.28ZM97.74 126.192C96.6776 126.192 95.756 125.994 94.9752 125.597C94.2072 125.2 93.612 124.63 93.1896 123.888C92.7672 123.146 92.556 122.25 92.556 121.2C92.556 120.15 92.7672 119.254 93.1896 118.512C93.612 117.77 94.2008 117.2 94.956 116.803C95.724 116.406 96.6008 116.208 97.5864 116.208C98.5976 116.208 99.4552 116.406 100.159 116.803C100.876 117.187 101.42 117.725 101.791 118.416C102.162 119.094 102.348 119.875 102.348 120.758C102.348 120.989 102.342 121.219 102.329 121.45C102.316 121.68 102.297 121.872 102.271 122.026H94.668V120.278H100.831L99.276 120.874C99.276 120.106 99.1352 119.517 98.8536 119.107C98.5848 118.698 98.1624 118.493 97.5864 118.493C97.1768 118.493 96.8248 118.589 96.5304 118.781C96.2488 118.973 96.0312 119.274 95.8776 119.683C95.7368 120.093 95.6664 120.618 95.6664 121.258C95.6664 121.885 95.7496 122.397 95.916 122.794C96.0824 123.178 96.3192 123.459 96.6264 123.638C96.9336 123.805 97.3048 123.888 97.74 123.888C98.2264 123.888 98.6104 123.792 98.892 123.6C99.1864 123.408 99.404 123.139 99.5448 122.794L102.156 123.658C101.977 124.208 101.663 124.675 101.215 125.059C100.78 125.43 100.255 125.712 99.6408 125.904C99.0392 126.096 98.4056 126.192 97.74 126.192ZM120.603 126H117.204L116.321 123.139H111.982L111.08 126H107.758L112.212 113.328H116.168L120.603 126ZM112.596 120.893H115.707L114.152 115.766L112.596 120.893ZM130.058 123.446H136.413V126H126.755V113.328H130.058V123.446ZM139.515 115.286C138.849 115.286 138.363 115.165 138.056 114.922C137.761 114.666 137.614 114.269 137.614 113.731C137.614 113.181 137.761 112.784 138.056 112.541C138.363 112.285 138.849 112.157 139.515 112.157C140.168 112.157 140.648 112.285 140.955 112.541C141.262 112.784 141.416 113.181 141.416 113.731C141.416 114.269 141.262 114.666 140.955 114.922C140.648 115.165 140.168 115.286 139.515 115.286ZM141.147 116.4V126H137.883V116.4H141.147ZM147.31 126.192C146.35 126.192 145.454 126.038 144.622 125.731C143.803 125.411 143.125 124.957 142.587 124.368L144.123 122.563C144.443 122.973 144.865 123.318 145.39 123.6C145.928 123.869 146.523 124.003 147.176 124.003C147.573 124.003 147.899 123.946 148.155 123.83C148.411 123.715 148.539 123.536 148.539 123.293C148.539 123.114 148.475 122.973 148.347 122.87C148.219 122.755 147.963 122.659 147.579 122.582L146.235 122.314C145.032 122.07 144.174 121.712 143.662 121.238C143.163 120.752 142.913 120.118 142.913 119.338C142.913 118.813 143.073 118.314 143.393 117.84C143.713 117.354 144.206 116.963 144.872 116.669C145.537 116.362 146.389 116.208 147.425 116.208C148.398 116.208 149.256 116.349 149.998 116.63C150.741 116.912 151.329 117.322 151.765 117.859L150.209 119.626C149.902 119.242 149.505 118.941 149.019 118.723C148.533 118.506 148.046 118.397 147.56 118.397C147.253 118.397 146.99 118.429 146.773 118.493C146.568 118.544 146.414 118.621 146.312 118.723C146.209 118.826 146.158 118.954 146.158 119.107C146.158 119.274 146.235 119.421 146.389 119.549C146.555 119.664 146.856 119.766 147.291 119.856L149.038 120.202C150.024 120.381 150.734 120.707 151.169 121.181C151.605 121.654 151.822 122.224 151.822 122.89C151.822 123.517 151.656 124.08 151.323 124.579C150.99 125.078 150.491 125.475 149.825 125.77C149.16 126.051 148.321 126.192 147.31 126.192ZM157.337 113.347V122.582C157.337 123.043 157.445 123.376 157.663 123.581C157.893 123.773 158.207 123.869 158.604 123.869C158.911 123.869 159.173 123.837 159.391 123.773C159.621 123.696 159.826 123.587 160.005 123.446L160.351 125.462C160.031 125.693 159.628 125.872 159.141 126C158.655 126.128 158.156 126.192 157.644 126.192C156.914 126.192 156.281 126.09 155.743 125.885C155.218 125.68 154.809 125.354 154.514 124.906C154.233 124.458 154.085 123.862 154.073 123.12V114.25L157.337 113.347ZM160.197 116.4V118.723H152.421V116.4H160.197Z" fill="#F1F1F1"/>
<defs>
<linearGradient id="paint0_linear_306_13" x1="210" y1="0" x2="210" y2="160" gradientUnits="userSpaceOnUse">
<stop stop-color="#F1F1F1"/>
<stop offset="1" stop-color="#8F689F"/>
</linearGradient>
</defs>
</svg>
