<svg width="420" height="160" viewBox="0 0 420 160" fill="none" xmlns="http://www.w3.org/2000/svg">
<g clip-path="url(#clip0_304_6)">
<path d="M0 8C0 3.58172 3.58172 0 8 0H412C416.418 0 420 3.58172 420 8V152C420 156.418 416.418 160 412 160H8C3.58172 160 0 156.418 0 152V8Z" fill="#343434"/>
<ellipse cx="378.152" cy="123.837" rx="60.2934" ry="69.9432" transform="rotate(24.9217 378.152 123.837)" fill="#9BBE96"/>
<path d="M22.6432 46.192C21.5168 46.192 20.512 45.9424 19.6288 45.4432C18.7584 44.944 18.08 44.208 17.5936 43.2352C17.1072 42.2624 16.864 41.0784 16.864 39.6832C16.864 38.3136 17.12 37.1424 17.632 36.1696C18.144 35.1968 18.8736 34.448 19.8208 33.9232C20.7808 33.3984 21.9072 33.136 23.2 33.136C24.6336 33.136 25.792 33.3984 26.6752 33.9232C27.5584 34.4352 28.2432 35.2544 28.7296 36.3808L25.6768 37.5904C25.5104 36.9376 25.216 36.464 24.7936 36.1696C24.3712 35.8752 23.8464 35.728 23.2192 35.728C22.592 35.728 22.0544 35.8816 21.6064 36.1888C21.1584 36.4832 20.8192 36.9248 20.5888 37.5136C20.3584 38.0896 20.2432 38.8064 20.2432 39.664C20.2432 40.56 20.3584 41.3088 20.5888 41.9104C20.832 42.512 21.184 42.96 21.6448 43.2544C22.1184 43.536 22.7008 43.6768 23.392 43.6768C23.7632 43.6768 24.1024 43.632 24.4096 43.5424C24.7168 43.4528 24.9856 43.3248 25.216 43.1584C25.4464 42.9792 25.6256 42.7616 25.7536 42.5056C25.8816 42.2368 25.9456 41.9232 25.9456 41.5648V41.3728H23.0464V39.1648H28.7488V46H26.5024L26.2528 43.024L26.7904 43.4848C26.5216 44.3552 26.0352 45.0272 25.3312 45.5008C24.64 45.9616 23.744 46.192 22.6432 46.192ZM35.539 46.192C34.4766 46.192 33.555 45.9936 32.7742 45.5968C32.0062 45.2 31.411 44.6304 30.9886 43.888C30.5662 43.1456 30.355 42.2496 30.355 41.2C30.355 40.1504 30.5662 39.2544 30.9886 38.512C31.411 37.7696 31.9998 37.2 32.755 36.8032C33.523 36.4064 34.3998 36.208 35.3854 36.208C36.3966 36.208 37.2542 36.4064 37.9582 36.8032C38.675 37.1872 39.219 37.7248 39.5902 38.416C39.9614 39.0944 40.147 39.8752 40.147 40.7584C40.147 40.9888 40.1406 41.2192 40.1278 41.4496C40.115 41.68 40.0958 41.872 40.0702 42.0256H32.467V40.2784H38.6302L37.075 40.8736C37.075 40.1056 36.9342 39.5168 36.6526 39.1072C36.3838 38.6976 35.9614 38.4928 35.3854 38.4928C34.9758 38.4928 34.6238 38.5888 34.3294 38.7808C34.0478 38.9728 33.8302 39.2736 33.6766 39.6832C33.5358 40.0928 33.4654 40.6176 33.4654 41.2576C33.4654 41.8848 33.5486 42.3968 33.715 42.7936C33.8814 43.1776 34.1182 43.4592 34.4254 43.6384C34.7326 43.8048 35.1038 43.888 35.539 43.888C36.0254 43.888 36.4094 43.792 36.691 43.6C36.9854 43.408 37.203 43.1392 37.3438 42.7936L39.955 43.6576C39.7758 44.208 39.4622 44.6752 39.0142 45.0592C38.579 45.4304 38.0542 45.712 37.4398 45.904C36.8382 46.096 36.2046 46.192 35.539 46.192ZM45.6813 33.3472V42.5824C45.6813 43.0432 45.7901 43.376 46.0077 43.5808C46.2381 43.7728 46.5517 43.8688 46.9485 43.8688C47.2557 43.8688 47.5181 43.8368 47.7357 43.7728C47.9661 43.696 48.1709 43.5872 48.3501 43.4464L48.6957 45.4624C48.3757 45.6928 47.9725 45.872 47.4861 46C46.9997 46.128 46.5005 46.192 45.9885 46.192C45.2589 46.192 44.6253 46.0896 44.0877 45.8848C43.5629 45.68 43.1533 45.3536 42.8589 44.9056C42.5773 44.4576 42.4301 43.8624 42.4173 43.12V34.2496L45.6813 33.3472ZM48.5421 36.4V38.7232H40.7661V36.4H48.5421ZM58.6923 43.4464H65.0475V46H55.3899V33.328H58.6923V43.4464ZM70.9746 36.208C71.9858 36.208 72.869 36.4064 73.6242 36.8032C74.3922 37.1872 74.9874 37.7568 75.4098 38.512C75.845 39.2544 76.0626 40.1504 76.0626 41.2C76.0626 42.2496 75.845 43.152 75.4098 43.9072C74.9874 44.6496 74.3922 45.2192 73.6242 45.616C72.869 46 71.9858 46.192 70.9746 46.192C69.989 46.192 69.1122 46 68.3442 45.616C67.5762 45.2192 66.9746 44.6496 66.5394 43.9072C66.117 43.152 65.9058 42.2496 65.9058 41.2C65.9058 40.1504 66.117 39.2544 66.5394 38.512C66.9746 37.7568 67.5762 37.1872 68.3442 36.8032C69.1122 36.4064 69.989 36.208 70.9746 36.208ZM70.9746 38.5312C70.6034 38.5312 70.2834 38.6208 70.0146 38.8C69.7458 38.9792 69.541 39.2672 69.4002 39.664C69.2594 40.0608 69.189 40.5728 69.189 41.2C69.189 41.8272 69.2594 42.3392 69.4002 42.736C69.541 43.12 69.7458 43.408 70.0146 43.6C70.2834 43.7792 70.6034 43.8688 70.9746 43.8688C71.3586 43.8688 71.685 43.7792 71.9538 43.6C72.2226 43.408 72.4274 43.12 72.5682 42.736C72.709 42.3392 72.7794 41.8272 72.7794 41.2C72.7794 40.5728 72.709 40.0608 72.5682 39.664C72.4274 39.2672 72.2226 38.9792 71.9538 38.8C71.685 38.6208 71.3586 38.5312 70.9746 38.5312ZM82.2763 36.208C83.2875 36.208 84.1707 36.4064 84.9259 36.8032C85.6939 37.1872 86.2891 37.7568 86.7115 38.512C87.1467 39.2544 87.3643 40.1504 87.3643 41.2C87.3643 42.2496 87.1467 43.152 86.7115 43.9072C86.2891 44.6496 85.6939 45.2192 84.9259 45.616C84.1707 46 83.2875 46.192 82.2763 46.192C81.2907 46.192 80.4139 46 79.6459 45.616C78.8779 45.2192 78.2763 44.6496 77.8411 43.9072C77.4187 43.152 77.2075 42.2496 77.2075 41.2C77.2075 40.1504 77.4187 39.2544 77.8411 38.512C78.2763 37.7568 78.8779 37.1872 79.6459 36.8032C80.4139 36.4064 81.2907 36.208 82.2763 36.208ZM82.2763 38.5312C81.9051 38.5312 81.5851 38.6208 81.3163 38.8C81.0475 38.9792 80.8427 39.2672 80.7019 39.664C80.5611 40.0608 80.4907 40.5728 80.4907 41.2C80.4907 41.8272 80.5611 42.3392 80.7019 42.736C80.8427 43.12 81.0475 43.408 81.3163 43.6C81.5851 43.7792 81.9051 43.8688 82.2763 43.8688C82.6603 43.8688 82.9867 43.7792 83.2555 43.6C83.5243 43.408 83.7291 43.12 83.8699 42.736C84.0107 42.3392 84.0811 41.8272 84.0811 41.2C84.0811 40.5728 84.0107 40.0608 83.8699 39.664C83.7291 39.2672 83.5243 38.9792 83.2555 38.8C82.9867 38.6208 82.6603 38.5312 82.2763 38.5312ZM89.0084 50.032V36.4H91.9461L92.1189 39.8752L91.7349 39.472C91.8245 38.832 92.0229 38.2688 92.3301 37.7824C92.6373 37.296 93.0341 36.912 93.5205 36.6304C94.0069 36.3488 94.5637 36.208 95.1909 36.208C95.9845 36.208 96.6757 36.4064 97.2645 36.8032C97.8533 37.1872 98.3077 37.7504 98.6277 38.4928C98.9605 39.2224 99.1269 40.112 99.1269 41.1616C99.1269 42.2112 98.9605 43.1136 98.6277 43.8688C98.2949 44.624 97.8277 45.2 97.2261 45.5968C96.6373 45.9936 95.9461 46.192 95.1525 46.192C94.2821 46.192 93.5781 45.936 93.0405 45.424C92.5029 44.8992 92.1445 44.24 91.9652 43.4464L92.2725 42.9856V50.032H89.0084ZM94.0389 43.792C94.6021 43.792 95.0437 43.5872 95.3637 43.1776C95.6837 42.7552 95.8437 42.096 95.8437 41.2C95.8437 40.304 95.6837 39.6512 95.3637 39.2416C95.0565 38.8192 94.6213 38.608 94.0581 38.608C93.6997 38.608 93.3861 38.7104 93.1173 38.9152C92.8485 39.1072 92.6373 39.3952 92.4837 39.7792C92.3429 40.1632 92.2725 40.6368 92.2725 41.2C92.2725 41.7376 92.3365 42.2048 92.4645 42.6016C92.6053 42.9856 92.8101 43.28 93.0789 43.4848C93.3476 43.6896 93.6677 43.792 94.0389 43.792ZM112.316 42.3712C112.073 43.2544 111.683 43.984 111.145 44.56C110.608 45.1232 109.968 45.5392 109.225 45.808C108.483 46.064 107.664 46.192 106.768 46.192C105.488 46.192 104.38 45.936 103.446 45.424C102.512 44.8992 101.795 44.1504 101.296 43.1776C100.796 42.2048 100.547 41.0336 100.547 39.664C100.547 38.2944 100.796 37.1232 101.296 36.1504C101.795 35.1776 102.512 34.4352 103.446 33.9232C104.38 33.3984 105.481 33.136 106.748 33.136C107.632 33.136 108.444 33.264 109.187 33.52C109.929 33.7632 110.556 34.1408 111.068 34.6528C111.58 35.1648 111.945 35.824 112.163 36.6304L109.264 37.8016C109.084 37.008 108.79 36.464 108.38 36.1696C107.984 35.8752 107.478 35.728 106.864 35.728C106.262 35.728 105.737 35.8752 105.289 36.1696C104.854 36.464 104.515 36.9056 104.272 37.4944C104.041 38.0704 103.926 38.7936 103.926 39.664C103.926 40.5216 104.035 41.2448 104.252 41.8336C104.47 42.4224 104.796 42.864 105.232 43.1584C105.68 43.4528 106.23 43.6 106.883 43.6C107.497 43.6 108.016 43.4336 108.438 43.1008C108.873 42.7552 109.168 42.2304 109.321 41.5264L112.316 42.3712ZM119.088 39.9136C119.088 39.4656 118.96 39.1136 118.704 38.8576C118.46 38.5888 118.128 38.4544 117.705 38.4544C117.283 38.4544 116.918 38.5632 116.611 38.7808C116.316 38.9856 116.112 39.3568 115.996 39.8944L113.232 39.2416C113.411 38.32 113.884 37.584 114.652 37.0336C115.42 36.4832 116.502 36.208 117.897 36.208C118.832 36.208 119.625 36.3488 120.278 36.6304C120.944 36.8992 121.449 37.3088 121.795 37.8592C122.153 38.3968 122.332 39.0624 122.332 39.856V43.3696C122.332 43.8688 122.556 44.1184 123.004 44.1184C123.235 44.1184 123.42 44.0928 123.561 44.0416L123.369 45.904C122.985 46.0832 122.518 46.1728 121.968 46.1728C121.468 46.1728 121.027 46.096 120.643 45.9424C120.259 45.776 119.958 45.5328 119.74 45.2128C119.523 44.88 119.414 44.464 119.414 43.9648V43.8496L119.779 43.7152C119.779 44.2656 119.612 44.7264 119.28 45.0976C118.96 45.4688 118.537 45.744 118.012 45.9232C117.5 46.1024 116.963 46.192 116.4 46.192C115.747 46.192 115.177 46.0896 114.691 45.8848C114.204 45.68 113.827 45.3856 113.558 45.0016C113.302 44.6048 113.174 44.1184 113.174 43.5424C113.174 42.8512 113.379 42.2816 113.788 41.8336C114.211 41.3728 114.87 41.0528 115.766 40.8736L119.395 40.1248L119.376 41.8528L117.532 42.2368C117.148 42.3136 116.86 42.4288 116.668 42.5824C116.489 42.7232 116.4 42.9408 116.4 43.2352C116.4 43.5168 116.502 43.728 116.707 43.8688C116.912 44.0096 117.155 44.08 117.436 44.08C117.654 44.08 117.859 44.048 118.051 43.984C118.256 43.92 118.435 43.824 118.588 43.696C118.742 43.5552 118.864 43.3824 118.953 43.1776C119.043 42.9728 119.088 42.7296 119.088 42.448V39.9136ZM124.657 46V36.4H127.537L127.672 38.4736C127.915 37.7568 128.273 37.2 128.747 36.8032C129.233 36.4064 129.848 36.208 130.59 36.208C130.833 36.208 131.038 36.2272 131.205 36.2656C131.384 36.304 131.525 36.3552 131.627 36.4192L131.301 39.1072C131.173 39.056 131.006 39.0176 130.801 38.992C130.609 38.9536 130.373 38.9344 130.091 38.9344C129.707 38.9344 129.349 39.0176 129.016 39.184C128.683 39.3504 128.414 39.6 128.209 39.9328C128.017 40.2528 127.921 40.6624 127.921 41.1616V46H124.657ZM136.485 33.3472V42.5824C136.485 43.0432 136.593 43.376 136.811 43.5808C137.041 43.7728 137.355 43.8688 137.752 43.8688C138.059 43.8688 138.321 43.8368 138.539 43.7728C138.769 43.696 138.974 43.5872 139.153 43.4464L139.499 45.4624C139.179 45.6928 138.776 45.872 138.289 46C137.803 46.128 137.304 46.192 136.792 46.192C136.062 46.192 135.429 46.0896 134.891 45.8848C134.366 45.68 133.957 45.3536 133.662 44.9056C133.381 44.4576 133.233 43.8624 133.221 43.12V34.2496L136.485 33.3472ZM139.345 36.4V38.7232H131.569V36.4H139.345ZM146.594 34.6912V44.848H144.002V34.6912H146.594ZM150.107 38.5888V40.9312H140.469V38.5888H150.107ZM161.701 32.0608C162.225 32.0608 162.686 32.1184 163.083 32.2336C163.48 32.336 163.774 32.4576 163.966 32.5984L163.64 34.6336C163.499 34.544 163.339 34.4736 163.16 34.4224C162.981 34.3712 162.757 34.3456 162.488 34.3456C162.04 34.3456 161.669 34.448 161.374 34.6528C161.093 34.8576 160.952 35.216 160.952 35.728V36.976L161.144 37.5136V46H157.88V35.5168C157.88 34.9024 157.976 34.3776 158.168 33.9424C158.373 33.5072 158.654 33.1488 159.013 32.8672C159.371 32.5856 159.781 32.3808 160.241 32.2528C160.702 32.1248 161.189 32.0608 161.701 32.0608ZM163.87 36.4V38.7232H156.344V36.4H163.87ZM165.004 46V36.4H167.884L168.018 38.4736C168.261 37.7568 168.62 37.2 169.093 36.8032C169.58 36.4064 170.194 36.208 170.937 36.208C171.18 36.208 171.385 36.2272 171.551 36.2656C171.73 36.304 171.871 36.3552 171.973 36.4192L171.647 39.1072C171.519 39.056 171.353 39.0176 171.148 38.992C170.956 38.9536 170.719 38.9344 170.437 38.9344C170.053 38.9344 169.695 39.0176 169.362 39.184C169.029 39.3504 168.761 39.6 168.556 39.9328C168.364 40.2528 168.268 40.6624 168.268 41.1616V46H165.004ZM177.634 46.192C176.572 46.192 175.65 45.9936 174.869 45.5968C174.101 45.2 173.506 44.6304 173.084 43.888C172.661 43.1456 172.45 42.2496 172.45 41.2C172.45 40.1504 172.661 39.2544 173.084 38.512C173.506 37.7696 174.095 37.2 174.85 36.8032C175.618 36.4064 176.495 36.208 177.48 36.208C178.492 36.208 179.349 36.4064 180.053 36.8032C180.77 37.1872 181.314 37.7248 181.685 38.416C182.056 39.0944 182.242 39.8752 182.242 40.7584C182.242 40.9888 182.236 41.2192 182.223 41.4496C182.21 41.68 182.191 41.872 182.165 42.0256H174.562V40.2784H180.725L179.17 40.8736C179.17 40.1056 179.029 39.5168 178.748 39.1072C178.479 38.6976 178.056 38.4928 177.48 38.4928C177.071 38.4928 176.719 38.5888 176.424 38.7808C176.143 38.9728 175.925 39.2736 175.772 39.6832C175.631 40.0928 175.56 40.6176 175.56 41.2576C175.56 41.8848 175.644 42.3968 175.81 42.7936C175.976 43.1776 176.213 43.4592 176.52 43.6384C176.828 43.8048 177.199 43.888 177.634 43.888C178.12 43.888 178.504 43.792 178.786 43.6C179.08 43.408 179.298 43.1392 179.439 42.7936L182.05 43.6576C181.871 44.208 181.557 44.6752 181.109 45.0592C180.674 45.4304 180.149 45.712 179.535 45.904C178.933 46.096 178.3 46.192 177.634 46.192ZM188.561 46.192C187.498 46.192 186.577 45.9936 185.796 45.5968C185.028 45.2 184.433 44.6304 184.01 43.888C183.588 43.1456 183.377 42.2496 183.377 41.2C183.377 40.1504 183.588 39.2544 184.01 38.512C184.433 37.7696 185.022 37.2 185.777 36.8032C186.545 36.4064 187.422 36.208 188.407 36.208C189.418 36.208 190.276 36.4064 190.98 36.8032C191.697 37.1872 192.241 37.7248 192.612 38.416C192.983 39.0944 193.169 39.8752 193.169 40.7584C193.169 40.9888 193.162 41.2192 193.15 41.4496C193.137 41.68 193.118 41.872 193.092 42.0256H185.489V40.2784H191.652L190.097 40.8736C190.097 40.1056 189.956 39.5168 189.674 39.1072C189.406 38.6976 188.983 38.4928 188.407 38.4928C187.998 38.4928 187.646 38.5888 187.351 38.7808C187.07 38.9728 186.852 39.2736 186.698 39.6832C186.558 40.0928 186.487 40.6176 186.487 41.2576C186.487 41.8848 186.57 42.3968 186.737 42.7936C186.903 43.1776 187.14 43.4592 187.447 43.6384C187.754 43.8048 188.126 43.888 188.561 43.888C189.047 43.888 189.431 43.792 189.713 43.6C190.007 43.408 190.225 43.1392 190.366 42.7936L192.977 43.6576C192.798 44.208 192.484 44.6752 192.036 45.0592C191.601 45.4304 191.076 45.712 190.462 45.904C189.86 46.096 189.226 46.192 188.561 46.192ZM204.447 32.0608C204.972 32.0608 205.432 32.1184 205.829 32.2336C206.226 32.336 206.52 32.4576 206.712 32.5984L206.386 34.6336C206.245 34.544 206.085 34.4736 205.906 34.4224C205.727 34.3712 205.503 34.3456 205.234 34.3456C204.786 34.3456 204.415 34.448 204.12 34.6528C203.839 34.8576 203.698 35.216 203.698 35.728V36.976L203.89 37.5136V46H200.626V35.5168C200.626 34.9024 200.722 34.3776 200.914 33.9424C201.119 33.5072 201.4 33.1488 201.759 32.8672C202.117 32.5856 202.527 32.3808 202.988 32.2528C203.448 32.1248 203.935 32.0608 204.447 32.0608ZM206.616 36.4V38.7232H199.09V36.4H206.616ZM212.226 36.208C213.237 36.208 214.12 36.4064 214.875 36.8032C215.643 37.1872 216.239 37.7568 216.661 38.512C217.096 39.2544 217.314 40.1504 217.314 41.2C217.314 42.2496 217.096 43.152 216.661 43.9072C216.239 44.6496 215.643 45.2192 214.875 45.616C214.12 46 213.237 46.192 212.226 46.192C211.24 46.192 210.363 46 209.595 45.616C208.827 45.2192 208.226 44.6496 207.791 43.9072C207.368 43.152 207.157 42.2496 207.157 41.2C207.157 40.1504 207.368 39.2544 207.791 38.512C208.226 37.7568 208.827 37.1872 209.595 36.8032C210.363 36.4064 211.24 36.208 212.226 36.208ZM212.226 38.5312C211.855 38.5312 211.535 38.6208 211.266 38.8C210.997 38.9792 210.792 39.2672 210.651 39.664C210.511 40.0608 210.44 40.5728 210.44 41.2C210.44 41.8272 210.511 42.3392 210.651 42.736C210.792 43.12 210.997 43.408 211.266 43.6C211.535 43.7792 211.855 43.8688 212.226 43.8688C212.61 43.8688 212.936 43.7792 213.205 43.6C213.474 43.408 213.679 43.12 213.819 42.736C213.96 42.3392 214.031 41.8272 214.031 41.2C214.031 40.5728 213.96 40.0608 213.819 39.664C213.679 39.2672 213.474 38.9792 213.205 38.8C212.936 38.6208 212.61 38.5312 212.226 38.5312ZM218.958 46V36.4H221.838L221.972 38.4736C222.216 37.7568 222.574 37.2 223.048 36.8032C223.534 36.4064 224.148 36.208 224.891 36.208C225.134 36.208 225.339 36.2272 225.505 36.2656C225.684 36.304 225.825 36.3552 225.928 36.4192L225.601 39.1072C225.473 39.056 225.307 39.0176 225.102 38.992C224.91 38.9536 224.673 38.9344 224.392 38.9344C224.008 38.9344 223.649 39.0176 223.316 39.184C222.984 39.3504 222.715 39.6 222.51 39.9328C222.318 40.2528 222.222 40.6624 222.222 41.1616V46H218.958ZM21.7792 69.192C20.4224 69.192 19.2896 68.9296 18.3808 68.4048C17.4848 67.8672 16.864 67.0864 16.5184 66.0624L19.552 64.7568C19.616 65.2176 19.7312 65.5888 19.8976 65.8704C20.0768 66.1392 20.3136 66.3376 20.608 66.4656C20.9024 66.5808 21.248 66.6384 21.6448 66.6384C22.0032 66.6384 22.304 66.5808 22.5472 66.4656C22.8032 66.3376 23.0016 66.1584 23.1424 65.928C23.2832 65.6976 23.3536 65.4224 23.3536 65.1024C23.3536 64.7696 23.2832 64.5008 23.1424 64.296C23.0144 64.0912 22.8224 63.944 22.5664 63.8544C22.3232 63.7648 22.0224 63.72 21.664 63.72C21.4976 63.72 21.344 63.7264 21.2032 63.7392C21.0624 63.7392 20.9024 63.752 20.7232 63.7776V61.6272C20.8256 61.64 20.928 61.6528 21.0304 61.6656C21.1328 61.6656 21.2544 61.6656 21.3952 61.6656C21.9968 61.6656 22.4256 61.544 22.6816 61.3008C22.9504 61.0448 23.0848 60.648 23.0848 60.1104C23.0848 59.6496 22.9504 59.2976 22.6816 59.0544C22.4256 58.8112 22.0608 58.6896 21.5872 58.6896C21.088 58.6896 20.6784 58.824 20.3584 59.0928C20.0384 59.3488 19.8336 59.7904 19.744 60.4176L16.8448 59.4192C16.9856 58.7152 17.2864 58.12 17.7472 57.6336C18.208 57.1472 18.784 56.776 19.4752 56.52C20.1792 56.264 20.9536 56.136 21.7984 56.136C22.7712 56.136 23.5904 56.2768 24.256 56.5584C24.9216 56.84 25.4272 57.2432 25.7728 57.768C26.1184 58.2928 26.2912 58.9072 26.2912 59.6112C26.2912 60.1616 26.2016 60.6224 26.0224 60.9936C25.856 61.3648 25.6384 61.6656 25.3696 61.896C25.1136 62.1264 24.8512 62.2992 24.5824 62.4144C24.3136 62.5168 24.0896 62.5808 23.9104 62.6064V62.664C24.1408 62.664 24.4032 62.7088 24.6976 62.7984C24.992 62.888 25.28 63.0352 25.5616 63.24C25.8432 63.432 26.0736 63.7008 26.2528 64.0464C26.4448 64.392 26.5408 64.8208 26.5408 65.3328C26.5408 66.1264 26.3296 66.8112 25.9072 67.3872C25.4976 67.9632 24.9344 68.4112 24.2176 68.7312C23.5008 69.0384 22.688 69.192 21.7792 69.192ZM33.3717 69.192C31.6437 69.192 30.3317 68.6416 29.4357 67.5408C28.5525 66.44 28.1109 64.8144 28.1109 62.664C28.1109 60.5136 28.5525 58.888 29.4357 57.7872C30.3317 56.6864 31.6437 56.136 33.3717 56.136C35.0997 56.136 36.4053 56.6864 37.2885 57.7872C38.1845 58.888 38.6325 60.5136 38.6325 62.664C38.6325 64.8144 38.1845 66.44 37.2885 67.5408C36.4053 68.6416 35.0997 69.192 33.3717 69.192ZM33.3717 66.6192C33.8453 66.6192 34.2293 66.4912 34.5237 66.2352C34.8181 65.9664 35.0293 65.544 35.1573 64.968C35.2981 64.3792 35.3685 63.6112 35.3685 62.664C35.3685 61.7168 35.2981 60.9552 35.1573 60.3792C35.0293 59.7904 34.8181 59.368 34.5237 59.112C34.2293 58.8432 33.8453 58.7088 33.3717 58.7088C32.9109 58.7088 32.5269 58.8432 32.2197 59.112C31.9253 59.368 31.7077 59.7904 31.5669 60.3792C31.4389 60.9552 31.3749 61.7168 31.3749 62.664C31.3749 63.6112 31.4389 64.3792 31.5669 64.968C31.7077 65.544 31.9253 65.9664 32.2197 66.2352C32.5269 66.4912 32.9109 66.6192 33.3717 66.6192ZM49.3593 69.192C48.5657 69.192 47.8681 69 47.2665 68.616C46.6777 68.2192 46.2169 67.6496 45.8841 66.9072C45.5641 66.1648 45.4041 65.2752 45.4041 64.2384C45.4041 63.1632 45.5705 62.2544 45.9033 61.512C46.2489 60.7696 46.7225 60.2 47.3241 59.8032C47.9385 59.4064 48.6425 59.208 49.4361 59.208C50.3065 59.208 51.0041 59.4768 51.5289 60.0144C52.0665 60.5392 52.4121 61.2112 52.5657 62.0304L52.2585 62.4336V55.3296H55.5225V69H52.6041L52.3929 65.736L52.7769 66.024C52.7001 66.664 52.5017 67.2208 52.1817 67.6944C51.8745 68.168 51.4777 68.5392 50.9913 68.808C50.5177 69.064 49.9737 69.192 49.3593 69.192ZM50.4921 66.792C50.8633 66.792 51.1769 66.696 51.4329 66.504C51.7017 66.2992 51.9065 65.9984 52.0473 65.6016C52.1881 65.2048 52.2585 64.7184 52.2585 64.1424C52.2585 63.6048 52.1881 63.1504 52.0473 62.7792C51.9193 62.3952 51.7209 62.1072 51.4521 61.9152C51.1961 61.7104 50.8825 61.608 50.5113 61.608C49.9481 61.608 49.5001 61.8192 49.1673 62.2416C48.8473 62.6512 48.6873 63.304 48.6873 64.2C48.6873 65.096 48.8473 65.7552 49.1673 66.1776C49.4873 66.5872 49.9289 66.792 50.4921 66.792ZM63.0288 62.9136C63.0288 62.4656 62.9008 62.1136 62.6448 61.8576C62.4016 61.5888 62.0688 61.4544 61.6464 61.4544C61.224 61.4544 60.8592 61.5632 60.552 61.7808C60.2576 61.9856 60.0528 62.3568 59.9376 62.8944L57.1728 62.2416C57.352 61.32 57.8256 60.584 58.5936 60.0336C59.3616 59.4832 60.4432 59.208 61.8384 59.208C62.7728 59.208 63.5664 59.3488 64.2192 59.6304C64.8848 59.8992 65.3904 60.3088 65.736 60.8592C66.0944 61.3968 66.2736 62.0624 66.2736 62.856V66.3696C66.2736 66.8688 66.4976 67.1184 66.9456 67.1184C67.176 67.1184 67.3616 67.0928 67.5024 67.0416L67.3104 68.904C66.9264 69.0832 66.4592 69.1728 65.9088 69.1728C65.4096 69.1728 64.968 69.096 64.584 68.9424C64.2 68.776 63.8992 68.5328 63.6816 68.2128C63.464 67.88 63.3552 67.464 63.3552 66.9648V66.8496L63.72 66.7152C63.72 67.2656 63.5536 67.7264 63.2208 68.0976C62.9008 68.4688 62.4784 68.744 61.9536 68.9232C61.4416 69.1024 60.904 69.192 60.3408 69.192C59.688 69.192 59.1184 69.0896 58.632 68.8848C58.1456 68.68 57.768 68.3856 57.4992 68.0016C57.2432 67.6048 57.1152 67.1184 57.1152 66.5424C57.1152 65.8512 57.32 65.2816 57.7296 64.8336C58.152 64.3728 58.8112 64.0528 59.7072 63.8736L63.336 63.1248L63.3168 64.8528L61.4736 65.2368C61.0896 65.3136 60.8016 65.4288 60.6096 65.5824C60.4304 65.7232 60.3408 65.9408 60.3408 66.2352C60.3408 66.5168 60.4432 66.728 60.648 66.8688C60.8528 67.0096 61.096 67.08 61.3776 67.08C61.5952 67.08 61.8 67.048 61.992 66.984C62.1968 66.92 62.376 66.824 62.5296 66.696C62.6832 66.5552 62.8048 66.3824 62.8944 66.1776C62.984 65.9728 63.0288 65.7296 63.0288 65.448V62.9136ZM77.6376 59.4L74.1432 69C73.7848 70.0112 73.3944 70.8176 72.972 71.4192C72.5496 72.0208 72.0504 72.456 71.4744 72.7248C70.8984 72.9936 70.2072 73.128 69.4008 73.128C68.8632 73.128 68.3704 73.0704 67.9224 72.9552C67.4744 72.84 67.084 72.68 66.7512 72.4752L67.404 70.2672C67.6344 70.4336 67.8776 70.5488 68.1336 70.6128C68.3896 70.6896 68.716 70.728 69.1128 70.728C69.484 70.728 69.7848 70.664 70.0152 70.536C70.2584 70.408 70.4504 70.1648 70.5912 69.8064L70.8408 69.2112L69.7272 66.6L66.8472 59.4H70.4376L71.916 64.872L72.3768 66.9072L72.9144 64.7952L74.3928 59.4H77.6376ZM82.47 69.192C81.51 69.192 80.614 69.0384 79.782 68.7312C78.9628 68.4112 78.2844 67.9568 77.7468 67.368L79.2828 65.5632C79.6028 65.9728 80.0252 66.3184 80.55 66.6C81.0876 66.8688 81.6828 67.0032 82.3356 67.0032C82.7324 67.0032 83.0588 66.9456 83.3148 66.8304C83.5708 66.7152 83.6988 66.536 83.6988 66.2928C83.6988 66.1136 83.6348 65.9728 83.5068 65.8704C83.3788 65.7552 83.1228 65.6592 82.7388 65.5824L81.3948 65.3136C80.1916 65.0704 79.334 64.712 78.822 64.2384C78.3228 63.752 78.0732 63.1184 78.0732 62.3376C78.0732 61.8128 78.2332 61.3136 78.5532 60.84C78.8732 60.3536 79.366 59.9632 80.0316 59.6688C80.6972 59.3616 81.5484 59.208 82.5852 59.208C83.558 59.208 84.4156 59.3488 85.158 59.6304C85.9004 59.912 86.4892 60.3216 86.9244 60.8592L85.3692 62.6256C85.062 62.2416 84.6652 61.9408 84.1788 61.7232C83.6924 61.5056 83.206 61.3968 82.7196 61.3968C82.4124 61.3968 82.15 61.4288 81.9324 61.4928C81.7276 61.544 81.574 61.6208 81.4716 61.7232C81.3692 61.8256 81.318 61.9536 81.318 62.1072C81.318 62.2736 81.3948 62.4208 81.5484 62.5488C81.7148 62.664 82.0156 62.7664 82.4508 62.856L84.198 63.2016C85.1836 63.3808 85.894 63.7072 86.3292 64.1808C86.7644 64.6544 86.982 65.224 86.982 65.8896C86.982 66.5168 86.8156 67.08 86.4828 67.5792C86.15 68.0784 85.6508 68.4752 84.9852 68.7696C84.3196 69.0512 83.4812 69.192 82.47 69.192Z" fill="#96AFBE"/>
<path d="M16 111C16 102.163 23.1634 95 32 95H183C191.837 95 199 102.163 199 111V124C199 132.837 191.837 140 183 140H32C23.1634 140 16 132.837 16 124V111Z" fill="#96AFBE"/>
<path d="M54.0299 111.136C55.2075 111.136 56.2443 111.322 57.1403 111.693C58.0491 112.051 58.8363 112.582 59.5019 113.286L57.9083 115.418C57.3579 114.842 56.7627 114.413 56.1227 114.131C55.4955 113.837 54.7787 113.69 53.9723 113.69C53.4987 113.69 53.1147 113.741 52.8203 113.843C52.5259 113.946 52.3147 114.086 52.1867 114.266C52.0587 114.445 51.9947 114.65 51.9947 114.88C51.9947 115.149 52.1163 115.379 52.3595 115.571C52.6155 115.75 53.0251 115.904 53.5883 116.032L55.7195 116.512C56.9867 116.806 57.9147 117.235 58.5035 117.798C59.0923 118.362 59.3867 119.11 59.3867 120.045C59.3867 120.941 59.1563 121.702 58.6955 122.33C58.2347 122.944 57.6011 123.411 56.7947 123.731C55.9883 124.038 55.0667 124.192 54.0299 124.192C53.1851 124.192 52.3787 124.102 51.6107 123.923C50.8427 123.731 50.1515 123.462 49.5371 123.117C48.9227 122.771 48.4043 122.374 47.9819 121.926L49.5755 119.718C49.8955 120.09 50.2859 120.422 50.7467 120.717C51.2203 120.998 51.7323 121.222 52.2827 121.389C52.8459 121.555 53.4155 121.638 53.9915 121.638C54.4395 121.638 54.8107 121.594 55.1051 121.504C55.4123 121.414 55.6363 121.28 55.7771 121.101C55.9179 120.922 55.9883 120.71 55.9883 120.467C55.9883 120.198 55.8923 119.974 55.7003 119.795C55.5083 119.603 55.1435 119.443 54.6059 119.315L52.2635 118.797C51.5467 118.63 50.9067 118.413 50.3435 118.144C49.7931 117.862 49.3579 117.491 49.0379 117.03C48.7179 116.557 48.5579 115.968 48.5579 115.264C48.5579 114.47 48.7755 113.766 49.2107 113.152C49.6459 112.525 50.2731 112.032 51.0923 111.674C51.9115 111.315 52.8907 111.136 54.0299 111.136ZM62.6234 113.286C61.9578 113.286 61.4714 113.165 61.1642 112.922C60.8698 112.666 60.7226 112.269 60.7226 111.731C60.7226 111.181 60.8698 110.784 61.1642 110.541C61.4714 110.285 61.9578 110.157 62.6234 110.157C63.2762 110.157 63.7562 110.285 64.0634 110.541C64.3706 110.784 64.5242 111.181 64.5242 111.731C64.5242 112.269 64.3706 112.666 64.0634 112.922C63.7562 113.165 63.2762 113.286 62.6234 113.286ZM64.2554 114.4V124H60.9914V114.4H64.2554ZM75.6797 111.827L75.9485 114.016C75.8717 113.99 75.7949 113.978 75.7181 113.978C75.6413 113.965 75.5645 113.958 75.4877 113.958C74.9245 113.958 74.5021 114.099 74.2205 114.381C73.9517 114.65 73.8173 114.989 73.8173 115.398L72.6653 114.976C72.6653 114.451 72.7613 113.946 72.9533 113.459C73.1453 112.973 73.4397 112.576 73.8365 112.269C74.2461 111.962 74.7581 111.808 75.3725 111.808C75.4109 111.808 75.4557 111.808 75.5069 111.808C75.5709 111.808 75.6285 111.814 75.6797 111.827ZM72.3773 121.869C73.4909 121.869 74.3421 122.106 74.9309 122.579C75.5325 123.04 75.8333 123.706 75.8333 124.576C75.8333 125.37 75.6157 126.029 75.1805 126.554C74.7453 127.078 74.1309 127.469 73.3373 127.725C72.5565 127.994 71.6285 128.128 70.5533 128.128C68.8125 128.128 67.5581 127.91 66.7901 127.475C66.0221 127.04 65.6381 126.451 65.6381 125.709C65.6381 125.171 65.8557 124.736 66.2909 124.403C66.7261 124.07 67.4493 123.891 68.4605 123.866L68.3837 124.173C67.6029 124.07 67.0205 123.84 66.6365 123.482C66.2525 123.123 66.0605 122.637 66.0605 122.022C66.0605 121.408 66.3037 120.909 66.7901 120.525C67.2765 120.141 67.9229 119.93 68.7293 119.891L69.9197 120.448H69.6125C69.1133 120.474 68.7613 120.557 68.5565 120.698C68.3517 120.838 68.2493 121.011 68.2493 121.216C68.2493 121.434 68.3389 121.6 68.5181 121.715C68.6973 121.818 68.9661 121.869 69.3245 121.869H72.3773ZM70.5725 126.016C71.1869 126.016 71.6925 125.971 72.0893 125.882C72.4989 125.805 72.8061 125.69 73.0109 125.536C73.2157 125.395 73.3181 125.229 73.3181 125.037C73.3181 124.845 73.2477 124.691 73.1069 124.576C72.9661 124.474 72.7101 124.422 72.3389 124.422H68.9021C68.6589 124.422 68.4605 124.486 68.3069 124.614C68.1661 124.742 68.0957 124.902 68.0957 125.094C68.0957 125.389 68.3133 125.613 68.7485 125.766C69.1837 125.933 69.7917 126.016 70.5725 126.016ZM70.6877 114.208C71.6605 114.208 72.4925 114.336 73.1837 114.592C73.8749 114.848 74.3997 115.219 74.7581 115.706C75.1293 116.179 75.3149 116.768 75.3149 117.472C75.3149 118.163 75.1293 118.752 74.7581 119.238C74.3997 119.725 73.8749 120.096 73.1837 120.352C72.4925 120.595 71.6605 120.717 70.6877 120.717C69.1645 120.717 68.0061 120.435 67.2125 119.872C66.4317 119.309 66.0413 118.509 66.0413 117.472C66.0413 116.768 66.2205 116.179 66.5789 115.706C66.9501 115.219 67.4813 114.848 68.1725 114.592C68.8637 114.336 69.7021 114.208 70.6877 114.208ZM70.6877 116.07C70.2653 116.07 69.9197 116.192 69.6509 116.435C69.3949 116.678 69.2669 117.024 69.2669 117.472C69.2669 117.907 69.3949 118.246 69.6509 118.49C69.9197 118.733 70.2653 118.854 70.6877 118.854C71.0973 118.854 71.4365 118.733 71.7053 118.49C71.9741 118.246 72.1085 117.907 72.1085 117.472C72.1085 117.024 71.9741 116.678 71.7053 116.435C71.4365 116.192 71.0973 116.07 70.6877 116.07ZM76.9387 124V114.4H79.8571L80.0299 117.702L79.6651 117.338C79.7931 116.646 80.0171 116.07 80.3371 115.61C80.6699 115.149 81.0795 114.803 81.5659 114.573C82.0651 114.33 82.6219 114.208 83.2363 114.208C83.9019 114.208 84.4779 114.336 84.9643 114.592C85.4635 114.848 85.8539 115.226 86.1355 115.725C86.4171 116.224 86.5579 116.851 86.5579 117.606V124H83.2939V118.47C83.2939 117.805 83.1659 117.344 82.9099 117.088C82.6539 116.832 82.3275 116.704 81.9307 116.704C81.6235 116.704 81.3355 116.781 81.0667 116.934C80.7979 117.075 80.5867 117.306 80.4331 117.626C80.2795 117.946 80.2027 118.374 80.2027 118.912V124H76.9387ZM105.264 111.328V118.835C105.264 120.627 104.784 121.971 103.824 122.867C102.876 123.75 101.468 124.192 99.5995 124.192C97.7435 124.192 96.3355 123.75 95.3755 122.867C94.4155 121.971 93.9355 120.627 93.9355 118.835V111.328H97.2571V118.893C97.2571 119.802 97.4491 120.48 97.8331 120.928C98.2299 121.376 98.8187 121.6 99.5995 121.6C100.393 121.6 100.982 121.376 101.366 120.928C101.763 120.48 101.961 119.802 101.961 118.893V111.328H105.264ZM107.356 128.032V114.4H110.294L110.467 117.875L110.083 117.472C110.172 116.832 110.371 116.269 110.678 115.782C110.985 115.296 111.382 114.912 111.868 114.63C112.355 114.349 112.912 114.208 113.539 114.208C114.332 114.208 115.024 114.406 115.612 114.803C116.201 115.187 116.656 115.75 116.976 116.493C117.308 117.222 117.475 118.112 117.475 119.162C117.475 120.211 117.308 121.114 116.976 121.869C116.643 122.624 116.176 123.2 115.574 123.597C114.985 123.994 114.294 124.192 113.5 124.192C112.63 124.192 111.926 123.936 111.388 123.424C110.851 122.899 110.492 122.24 110.313 121.446L110.62 120.986V128.032H107.356ZM112.387 121.792C112.95 121.792 113.392 121.587 113.712 121.178C114.032 120.755 114.192 120.096 114.192 119.2C114.192 118.304 114.032 117.651 113.712 117.242C113.404 116.819 112.969 116.608 112.406 116.608C112.048 116.608 111.734 116.71 111.465 116.915C111.196 117.107 110.985 117.395 110.832 117.779C110.691 118.163 110.62 118.637 110.62 119.2C110.62 119.738 110.684 120.205 110.812 120.602C110.953 120.986 111.158 121.28 111.427 121.485C111.696 121.69 112.016 121.792 112.387 121.792ZM136.177 111.328V124H132.875V111.328H136.177ZM128.037 111.328V124H124.734V111.328H128.037ZM134.641 116.339V118.893H126.347V116.339H134.641ZM143.19 124.192C142.128 124.192 141.206 123.994 140.425 123.597C139.657 123.2 139.062 122.63 138.64 121.888C138.217 121.146 138.006 120.25 138.006 119.2C138.006 118.15 138.217 117.254 138.64 116.512C139.062 115.77 139.651 115.2 140.406 114.803C141.174 114.406 142.051 114.208 143.037 114.208C144.048 114.208 144.905 114.406 145.609 114.803C146.326 115.187 146.87 115.725 147.241 116.416C147.613 117.094 147.798 117.875 147.798 118.758C147.798 118.989 147.792 119.219 147.779 119.45C147.766 119.68 147.747 119.872 147.721 120.026H140.118V118.278H146.281L144.726 118.874C144.726 118.106 144.585 117.517 144.304 117.107C144.035 116.698 143.613 116.493 143.037 116.493C142.627 116.493 142.275 116.589 141.981 116.781C141.699 116.973 141.481 117.274 141.328 117.683C141.187 118.093 141.117 118.618 141.117 119.258C141.117 119.885 141.2 120.397 141.366 120.794C141.533 121.178 141.769 121.459 142.077 121.638C142.384 121.805 142.755 121.888 143.19 121.888C143.677 121.888 144.061 121.792 144.342 121.6C144.637 121.408 144.854 121.139 144.995 120.794L147.606 121.658C147.427 122.208 147.113 122.675 146.665 123.059C146.23 123.43 145.705 123.712 145.091 123.904C144.489 124.096 143.856 124.192 143.19 124.192ZM149.432 124V114.4H152.312L152.447 116.474C152.69 115.757 153.048 115.2 153.522 114.803C154.008 114.406 154.623 114.208 155.365 114.208C155.608 114.208 155.813 114.227 155.979 114.266C156.159 114.304 156.299 114.355 156.402 114.419L156.075 117.107C155.947 117.056 155.781 117.018 155.576 116.992C155.384 116.954 155.147 116.934 154.866 116.934C154.482 116.934 154.123 117.018 153.791 117.184C153.458 117.35 153.189 117.6 152.984 117.933C152.792 118.253 152.696 118.662 152.696 119.162V124H149.432ZM162.062 124.192C161 124.192 160.078 123.994 159.298 123.597C158.53 123.2 157.934 122.63 157.512 121.888C157.09 121.146 156.878 120.25 156.878 119.2C156.878 118.15 157.09 117.254 157.512 116.512C157.934 115.77 158.523 115.2 159.278 114.803C160.046 114.406 160.923 114.208 161.909 114.208C162.92 114.208 163.778 114.406 164.482 114.803C165.198 115.187 165.742 115.725 166.114 116.416C166.485 117.094 166.67 117.875 166.67 118.758C166.67 118.989 166.664 119.219 166.651 119.45C166.638 119.68 166.619 119.872 166.594 120.026H158.99V118.278H165.154L163.598 118.874C163.598 118.106 163.458 117.517 163.176 117.107C162.907 116.698 162.485 116.493 161.909 116.493C161.499 116.493 161.147 116.589 160.853 116.781C160.571 116.973 160.354 117.274 160.2 117.683C160.059 118.093 159.989 118.618 159.989 119.258C159.989 119.885 160.072 120.397 160.238 120.794C160.405 121.178 160.642 121.459 160.949 121.638C161.256 121.805 161.627 121.888 162.062 121.888C162.549 121.888 162.933 121.792 163.214 121.6C163.509 121.408 163.726 121.139 163.867 120.794L166.478 121.658C166.299 122.208 165.986 122.675 165.538 123.059C165.102 123.43 164.578 123.712 163.963 123.904C163.362 124.096 162.728 124.192 162.062 124.192Z" fill="black"/>
</g>
<defs>
<clipPath id="clip0_304_6">
<path d="M0 8C0 3.58172 3.58172 0 8 0H412C416.418 0 420 3.58172 420 8V152C420 156.418 416.418 160 412 160H8C3.58172 160 0 156.418 0 152V8Z" fill="white"/>
</clipPath>
</defs>
</svg>
