<svg width="25" height="23" viewBox="0 0 25 23" fill="none" xmlns="http://www.w3.org/2000/svg">
<path d="M22.4694 10.1379L14.619 19.8724C14.1082 20.5058 13.8528 20.8225 13.5792 20.9979C12.9215 21.4194 12.0785 21.4194 11.4208 20.9979C11.1472 20.8225 10.8918 20.5058 10.381 19.8724L2.70007 10.3481C1.10402 8.36899 1.02222 5.5689 2.5 3.5C3.8411 1.62246 6.50673 1.30583 8.25034 2.81696L10.5306 4.79317C11.2325 5.40148 11.5834 5.70563 11.9803 5.83014C12.3303 5.93994 12.7037 5.95138 13.0597 5.86321C13.4635 5.76322 13.8324 5.48112 14.5702 4.91691L17.7978 2.44871C19.4927 1.15262 21.9414 1.64747 23 3.5C24.2062 5.61092 23.9957 8.24536 22.4694 10.1379Z" fill="#EE9088" stroke="#EE9088" stroke-width="2"/>
</svg>
