<svg width="53" height="46" viewBox="0 0 53 46" fill="none" xmlns="http://www.w3.org/2000/svg">
  <path d="M9.20706 19.1408C9.20706 18.0207 9.20706 17.4606 9.42505 17.0328C9.6168 16.6565 9.92276 16.3505 10.2991 16.1588C10.7269 15.9408 11.287 15.9408 12.4071 15.9408H40.7148C41.8349 15.9408 42.3949 15.9408 42.8227 16.1588C43.1991 16.3505 43.505 16.6565 43.6968 17.0328C43.9148 17.4606 43.9148 18.0207 43.9148 19.1408V42.425C43.9148 43.5451 43.9148 44.1052 43.6968 44.533C43.505 44.9093 43.1991 45.2153 42.8227 45.407C42.3949 45.625 41.8349 45.625 40.7148 45.625H36.4179C35.2833 45.625 34.716 45.625 34.2851 45.4031C33.9061 45.208 33.5994 44.8968 33.4097 44.5151C33.194 44.0811 33.2021 43.5138 33.2183 42.3793L33.2827 37.8707C33.2989 36.7362 33.307 36.1689 33.0913 35.7349C32.9015 35.3532 32.5948 35.042 32.2159 34.8469C31.7849 34.625 31.2176 34.625 30.083 34.625H23.2617C22.1559 34.625 21.6031 34.625 21.1783 34.8391C20.8047 35.0275 20.4995 35.3283 20.3058 35.6992C20.0857 36.1209 20.0778 36.6737 20.062 37.7793L19.995 42.4707C19.9792 43.5763 19.9713 44.1292 19.7511 44.5508C19.5574 44.9217 19.2523 45.2225 18.8786 45.4109C18.4539 45.625 17.901 45.625 16.7953 45.625H12.4071C11.287 45.625 10.7269 45.625 10.2991 45.407C9.92276 45.2153 9.6168 44.9093 9.42505 44.533C9.20706 44.1052 9.20706 43.5451 9.20706 42.425V19.1408Z" fill="currentColor"/>
  <path d="M24.3143 1.75473C24.9926 1.25905 25.3317 1.01122 25.7028 0.915498C26.0305 0.830986 26.3742 0.830986 26.7019 0.915498C27.073 1.01122 27.4121 1.25905 28.0904 1.75473L44.2879 13.5914C46.6922 15.3484 47.8944 16.2269 48.0411 17.004C48.1679 17.6761 47.9426 18.3663 47.4437 18.8341C46.8667 19.375 45.3777 19.375 42.3998 19.375H26.2023H10.0049C7.02697 19.375 5.53803 19.375 4.96104 18.8341C4.46211 18.3663 4.23678 17.6761 4.36363 17.004C4.51033 16.2269 5.71249 15.3484 8.11682 13.5913L24.3143 1.75473Z" fill="currentColor"/>
</svg>

