<svg width="39" height="46" viewBox="0 0 39 46" fill="none" xmlns="http://www.w3.org/2000/svg">
<path d="M27.9029 10.1133L31.112 11.9768C31.6033 12.262 31.9457 12.4611 32.1997 12.6377C32.3868 12.7679 32.5055 12.8723 32.5868 12.9687L32.6567 13.0623C32.8071 13.2951 32.8893 13.5648 32.896 13.8404L32.8938 13.9589C32.8857 14.1063 32.8391 14.2799 32.7087 14.5538C32.5756 14.8332 32.3766 15.1763 32.0912 15.6678L18.641 38.831C18.4796 39.1091 18.3966 39.2491 18.3266 39.3452L18.2592 39.4303C18.2152 39.4799 18.1675 39.5261 18.1175 39.5693L17.9586 39.6894C17.9007 39.7273 17.8384 39.7608 17.7405 39.8044L17.3115 39.981L14.3065 41.1869C13.618 41.4631 13.1323 41.6569 12.748 41.7725C12.462 41.8586 12.2657 41.8903 12.1141 41.8878L11.9758 41.8752C11.6502 41.8163 11.3543 41.6513 11.1333 41.4086L11.0438 41.3002C10.9406 41.1629 10.8558 40.9563 10.787 40.5638C10.7524 40.3663 10.7243 40.1373 10.6968 39.8655L10.6114 38.908L10.3588 35.9201C10.3341 35.6268 10.323 35.4785 10.3241 35.3692L10.329 35.2693C10.3351 35.2085 10.3449 35.1481 10.3583 35.0887L10.4095 34.9129C10.4523 34.7932 10.5177 34.6761 10.7147 34.3369L24.2119 11.0925C24.4973 10.6011 24.6967 10.2581 24.8733 10.004C25.0033 9.81711 25.1075 9.69898 25.2038 9.61773L25.2974 9.54788C25.5302 9.39751 25.8 9.31525 26.0755 9.30859L26.1945 9.3099C26.3419 9.31808 26.5153 9.36553 26.7889 9.49584C27.0683 9.62893 27.4114 9.82797 27.9029 10.1133Z" fill="#D3D3D3" stroke="#D3D3D3"/>
<path d="M34.1621 3.02987C34.6824 3.332 35.2373 3.73892 35.7627 4.16483L36.2758 4.5938C36.8084 5.0521 37.0236 5.24656 37.1538 5.46609L37.2051 5.56251C37.3004 5.76286 37.3541 6.03939 37.3475 6.27417L37.3413 6.37224C37.3091 6.66251 37.1665 6.92809 36.7174 7.70156L36.1515 8.67612C35.8662 9.16737 35.6672 9.50978 35.4905 9.76377C35.3606 9.95066 35.2563 10.0688 35.1601 10.1501L35.0651 10.2203C34.8323 10.3705 34.5633 10.4534 34.2879 10.46L34.1694 10.4579C34.0219 10.4498 33.8481 10.402 33.5741 10.2715C33.2948 10.1384 32.9522 9.93969 32.461 9.65445L29.2518 7.791C28.7604 7.50563 28.4174 7.30625 28.1633 7.12959C27.9764 6.99956 27.8583 6.89542 27.777 6.79913L27.7072 6.70549C27.5568 6.47259 27.4745 6.20304 27.4679 5.92739L27.4687 5.80929C27.4768 5.66173 27.5246 5.4881 27.6552 5.21401C27.7882 4.93472 27.9869 4.59212 28.2722 4.10087L28.8381 3.1263C29.2313 2.44913 29.403 2.16908 29.598 1.99452L29.6833 1.92546C29.8627 1.79494 30.125 1.69046 30.3571 1.65384L30.4541 1.6424C30.6741 1.62601 30.8712 1.66684 31.2751 1.80181L31.756 1.96928C32.5823 2.26298 33.4685 2.62712 34.1621 3.02987Z" fill="#D3D3D3" stroke="#D3D3D3"/>
<path d="M17.6234 44.1317L1.20236 44.1317" stroke="#D3D3D3" stroke-width="2" stroke-linecap="round"/>
</svg>
