<svg width="22" height="26" viewBox="0 0 22 26" fill="none" xmlns="http://www.w3.org/2000/svg">
<path d="M19.8337 21.2055V25.3415H18.9297V21.2055H19.8337ZM21.3617 22.8535V23.6855H17.3937V22.8535H21.3617Z" fill="#343434"/>
<path d="M9.94337 14.14C13.7555 14.2509 17.9137 16.015 18.2783 20.2532C18.07 20.2129 17.8549 20.1917 17.6348 20.1917C17.5117 20.1917 17.3902 20.1984 17.2705 20.2112C17.0874 18.5303 16.1945 17.3456 14.9248 16.5286C13.4541 15.5825 11.4709 15.1342 9.55861 15.1341C7.64344 15.1341 5.47267 15.5829 3.81837 16.5501C2.19561 17.4991 1.13577 18.8924 1.13576 20.8646C1.13575 21.5004 1.10221 22.1163 1.06935 22.6859C1.03592 23.2651 1.004 23.7867 0.999036 24.2806C0.994051 24.7771 1.01861 25.204 1.084 25.5755H0.0722785C-0.106316 24.334 0.0934996 22.8786 0.129896 21.3148L0.135755 20.8646C0.13579 16.0324 5.46978 14.1342 9.55861 14.1341L9.94337 14.14Z" fill="#343434"/>
<circle cx="9.55814" cy="6.05746" r="5.55746" stroke="#343434"/>
</svg>
