<svg width="24" height="24" viewBox="0 0 24 24" fill="none" xmlns="http://www.w3.org/2000/svg">
<circle cx="15.4444" cy="5.68421" r="5.18421" stroke="#343434"/>
<path d="M16.1468 12.6355C19.8042 12.7237 23.8128 14.1959 23.8128 18.0886L23.8186 18.4685C23.8721 20.3008 24.262 22.3112 23.6868 23.9998H22.6106C22.634 23.9488 22.6587 23.8992 22.679 23.8484C22.968 23.1236 23.0268 22.2638 22.9876 21.2527C22.968 20.7496 22.9262 20.2438 22.887 19.7068C22.8486 19.1808 22.8128 18.6304 22.8128 18.0886C22.8128 16.5162 22.0118 15.4502 20.72 14.7253C19.3833 13.9754 17.5649 13.6316 15.7942 13.6316C14.0235 13.6316 12.2052 13.9754 10.8684 14.7253C9.57648 15.4502 8.77566 16.5161 8.77566 18.0886C8.77566 18.6312 8.7386 19.1921 8.69852 19.7332C8.65761 20.2853 8.6132 20.8136 8.59109 21.3416C8.54834 22.3631 8.59928 23.2518 8.86063 23.9998H7.81375C7.34352 22.2816 7.71597 20.2427 7.76883 18.4695L7.77566 18.0886C7.77566 14.0703 12.0468 12.6316 15.7942 12.6316L16.1468 12.6355Z" fill="#343434"/>
<mask id="mask0_320_32" style="mask-type:alpha" maskUnits="userSpaceOnUse" x="0" y="0" width="17" height="24">
<circle cx="7.86548" cy="5.68421" r="5.18421" stroke="#D3D3D3"/>
<path d="M8.56781 12.6355C12.2253 12.7237 16.2338 14.1959 16.2338 18.0886L16.2397 18.4685C16.2931 20.3008 16.683 22.3112 16.1078 23.9998H15.0317C15.0551 23.9488 15.0798 23.8992 15.1 23.8484C15.389 23.1236 15.4479 22.2638 15.4086 21.2527C15.3891 20.7496 15.3473 20.2438 15.308 19.7068C15.2696 19.1808 15.2338 18.6304 15.2338 18.0886C15.2338 16.5162 14.4329 15.4502 13.1411 14.7253C11.8043 13.9754 9.98596 13.6316 8.21527 13.6316C6.44456 13.6316 4.62628 13.9754 3.28949 14.7253C1.99753 15.4502 1.19672 16.5161 1.19672 18.0886C1.19671 18.6312 1.15965 19.1921 1.11957 19.7332C1.07866 20.2853 1.03425 20.8136 1.01215 21.3416C0.969391 22.3631 1.02033 23.2518 1.28168 23.9998H0.234802C-0.235431 22.2816 0.137019 20.2427 0.18988 18.4695L0.196716 18.0886C0.196716 14.0703 4.46788 12.6316 8.21527 12.6316L8.56781 12.6355Z" fill="#D3D3D3"/>
</mask>
<g mask="url(#mask0_320_32)">
<rect x="-5.0522" width="16.4211" height="24" fill="#343434"/>
</g>
</svg>
