<svg width="25" height="22" viewBox="0 0 25 22" fill="none" xmlns="http://www.w3.org/2000/svg">
<path d="M22.4694 9.63789L14.619 19.3724C14.1082 20.0058 13.8528 20.3225 13.5792 20.4979C12.9215 20.9194 12.0785 20.9194 11.4208 20.4979C11.1472 20.3225 10.8918 20.0058 10.381 19.3724L2.70007 9.84808C1.10402 7.86899 1.02222 5.0689 2.5 3C3.8411 1.12246 6.50673 0.805834 8.25034 2.31696L10.5306 4.29317C11.2325 4.90148 11.5834 5.20563 11.9803 5.33014C12.3303 5.43994 12.7037 5.45138 13.0597 5.36321C13.4635 5.26322 13.8324 4.98112 14.5702 4.41691L17.7978 1.94871C19.4927 0.652623 21.9414 1.14747 23 3C24.2062 5.11092 23.9957 7.74536 22.4694 9.63789Z" stroke="#EE9088" stroke-width="2"/>
</svg>
