<svg width="20" height="21" viewBox="0 0 20 21" fill="none" xmlns="http://www.w3.org/2000/svg">
<path d="M13.749 17.7087C13.749 19.5262 12.0708 20.9996 10 20.9998C7.99391 20.9998 6.35555 19.6174 6.25488 17.8787L6.25 17.7087H13.749Z" fill="#343434"/>
<path d="M6.68957 4.07107C6.8861 3.82937 6.98437 3.70852 7.0685 3.61726C8.64939 1.90233 11.3563 1.89823 12.9424 3.60838C13.0268 3.69938 13.1254 3.81993 13.3227 4.06104L13.5312 4.31595C14.1492 5.07122 14.426 6.04905 14.2958 7.01617C13.965 9.47177 15.137 11.8867 17.2707 13.1462L18.6271 13.9469C19.1072 14.2302 19.4595 14.6877 19.611 15.2241C19.8062 15.9155 19.2867 16.6019 18.5683 16.6019H1.43169C0.713289 16.6019 0.193817 15.9155 0.389025 15.2241C0.540486 14.6877 0.892846 14.2302 1.37286 13.9469L2.62352 13.2086C4.82102 11.9115 6.02713 9.42366 5.68444 6.89498C5.56676 6.02662 5.81364 5.14827 6.3665 4.46837L6.68957 4.07107Z" fill="#343434"/>
</svg>
