<svg width="21" height="20" viewBox="0 0 21 20" fill="none" xmlns="http://www.w3.org/2000/svg">
<path d="M11.7969 1C12.4742 0.0274681 13.7912 -0.29296 14.8496 0.294922L16.0693 0.97168L16.2793 1.10254C17.2235 1.75579 17.6006 2.97549 17.1904 4.04785L17.0908 4.27539L16.8945 4.66797C16.396 5.66528 17.1213 6.83887 18.2363 6.83887H18.5C19.8807 6.83887 21 7.95816 21 9.33887V10.3506C20.9999 11.7247 19.8859 12.8389 18.5117 12.8389C17.3549 12.8389 16.6403 14.1008 17.2354 15.0928L17.3652 15.3086L17.4883 15.54C17.9997 16.6357 17.648 17.9484 16.6572 18.6416L16.4355 18.7803L15.3555 19.3799C14.2882 19.9727 12.961 19.705 12.2041 18.7764L12.0605 18.582L11.8574 18.2773C11.2929 17.4306 10.0764 17.4254 9.49219 18.21L9.38379 18.377C8.76766 19.4858 7.4182 19.9299 6.27734 19.4395L6.05273 19.3291L4.92383 18.7021C3.762 18.0566 3.34385 16.5907 3.98926 15.4287L4.07324 15.251C4.42391 14.3517 3.76443 13.3389 2.75879 13.3389H2.5C1.11936 13.3389 0.000115911 12.2195 0 10.8389V8.83887C0 7.45816 1.11929 6.33887 2.5 6.33887H2.75879C3.76436 6.33887 4.42374 5.32597 4.07324 4.42676L3.98926 4.24902C3.34374 3.08709 3.76201 1.62124 4.92383 0.975586L6.15039 0.294922L6.36523 0.189453C7.45417 -0.278438 8.74209 0.144741 9.33008 1.20312L9.43457 1.36426C10.0016 2.11731 11.1917 2.06358 11.6699 1.20312L11.7969 1ZM10.5 5.83887C8.29086 5.83887 6.5 7.62973 6.5 9.83887C6.50012 12.0479 8.29093 13.8389 10.5 13.8389C12.7091 13.8389 14.4999 12.0479 14.5 9.83887C14.5 7.62973 12.7091 5.83887 10.5 5.83887Z" fill="#343434"/>
</svg>
